<svg version="1.1" viewBox="0 0 200 200" xmlns="http://www.w3.org/2000/svg" xmlns:cc="http://creativecommons.org/ns#" xmlns:dc="http://purl.org/dc/elements/1.1/" xmlns:rdf="http://www.w3.org/1999/02/22-rdf-syntax-ns#"><g><polygon points=" 28.3,14.2  30.6,16.8 33.1,19.3 35.4,21.8 37.5,24.4 39.4,27 41.1,29.7 42.7,32.5 44.1,35.2 45.3,38 46.3,40.9 34.5,43.1 34.4,40.7 34.1,38.2 33.8,35.7 33.2,33 32.5,30.3 31.7,27.5 30.7,24.5 29.6,21.5 28.5,18.3 26.8,15.3"></polygon><polygon points=" 46.3,40.9  45.3,45.4 41.5,47.9 37,46.9 34.5,43.1"></polygon><polygon points=" 82.2,17  80.5,20.5 78.7,24.2 76.9,27.8 74.9,31.5 72.9,35.3 70.7,39.1 68.4,42.9 66,46.7 63.4,50.5 60.8,54.3 59.1,53.6 60.4,49.1 61.6,44.7 62.9,40.4 64.1,36.2 65.4,32.1 66.6,28.1 67.8,24.1 68.9,20.3 70,16.5 71,12.8"></polygon><polygon points=" 70.6,13.8  82.2,17 71.5,11.4"></polygon><polygon points=" 82.2,17  84.4,19.9 78.6,21"></polygon><polygon points=" 12,52  97,52 97,56 12,56"></polygon><polygon points=" 97,52  73,54 85,42"></polygon><polygon points=" 39.6,56.2  37.6,63.3 35.5,70.3 33.2,77.3 30.8,84.3 28.2,91.3 25.4,98.2 22.4,105.1 19.2,111.9 15.6,118.7 11.8,125.3 10.1,124.6 12.1,117.2 14.2,110 16.2,102.8 18.2,95.7 20.1,88.6 21.9,81.6 23.6,74.6 25.1,67.6 26.6,60.6 27.9,53.6"></polygon><polygon points=" 27.7,54.6  39.6,56.2 28.3,51.8"></polygon><polygon points=" 39.6,56.2  42.1,58.8 36.6,60.7"></polygon><polygon points=" 34,83  34,185 22,191 22,81"></polygon><polygon points=" 34,83  37,85 32,88"></polygon><polygon points=" 67.4,60.7  66.1,63.6 64.7,66.4 63.4,69.1 62.1,71.7 60.7,74.3 59.3,76.9 58,79.3 56.5,81.7 55,83.9 53.8,86.2 52.1,85.7 52.5,83.1 52.6,80.4 52.9,77.6 53.2,74.9 53.5,72 53.9,69.2 54.4,66.2 54.9,63.2 55.4,60.2 55.9,57.1"></polygon><polygon points=" 55.6,58.1  67.4,60.7 56.4,55.6"></polygon><polygon points=" 67.4,60.7  69.6,63.5 64,64.9"></polygon><polygon points=" 62,87  62,173 50,179 50,85"></polygon><polygon points=" 62,87  65,89 60,92"></polygon><polygon points=" 28,84  93,84 93,88 28,88"></polygon><polygon points=" 93,84  69,86 81,74"></polygon><polygon points=" 28,114  87,114 87,118 28,118"></polygon><polygon points=" 87,114  63,116 75,104"></polygon><polygon points=" 28,144  87,144 87,148 28,148"></polygon><polygon points=" 87,144  63,146 75,134"></polygon><polygon points=" 28,174  98,174 98,178 28,178"></polygon><polygon points=" 98,174  74,176 86,164"></polygon><polygon points=" 124,24  124,133 112,139 112,18"></polygon><polygon points=" 118,24  170,24 170,28 118,28"></polygon><polygon points=" 176,26  176,127 164,133 164,26"></polygon><polygon points=" 164,24  170,19 181,28 176,32 164,26"></polygon><polygon points=" 118,54  170,54 170,58 118,58"></polygon><polygon points=" 118,85  170,85 170,89 118,89"></polygon><polygon points=" 118,117  170,117 170,121 118,121"></polygon><polygon points=" 139.8,125.7  137.8,135.4 135.1,144.5 131.4,152.8 127,160.3 121.7,167.1 115.7,173 108.9,178.1 101.4,182.3 93.1,185.6 84.2,187.8 83.7,186.1 91.6,182.1 98.7,177.7 105,172.9 110.4,167.6 115.1,161.8 119.1,155.5 122.3,148.6 124.9,141.1 126.7,133 127.9,124.2"></polygon><polygon points=" 127.8,125.2  139.8,125.7 128.1,122.1"></polygon><polygon points=" 139.8,125.7  142.5,128 137.2,130.4"></polygon><polygon points=" 156,120  156,164 144,164 144,118"></polygon><polygon points=" 156,120  159,122 154,125"></polygon><polygon points=" 144,164  146.4,167.6 150,170 153.6,167.6 156,164"></polygon><polygon points=" 156,164  156,165.2 156.2,166.1 156.4,166.7 156.5,167 156.7,167.2 156.9,167.4 157.2,167.5 157.8,167.7 158.7,167.9 160,168 160,180 157.4,179.8 154.9,179.4 152.5,178.6 150.2,177.3 148.2,175.7 146.6,173.7 145.3,171.4 144.5,169 144.1,166.5 144,164"></polygon><polygon points=" 160,168  164.2,169.8 166,174 164.2,178.2 160,180"></polygon><polygon points=" 160,168  182,168 182,180 160,180"></polygon><polygon points=" 182,168  185.6,170.4 188,174 185.6,177.6 182,180"></polygon><polygon points=" 182,168  184,143 182,143 176,168"></polygon></g></svg>