<svg version="1.1" viewBox="0 0 200 200" xmlns="http://www.w3.org/2000/svg" xmlns:cc="http://creativecommons.org/ns#" xmlns:dc="http://purl.org/dc/elements/1.1/" xmlns:rdf="http://www.w3.org/1999/02/22-rdf-syntax-ns#"><g><polygon points=" 28.3,14.3  30.4,16.9 32.8,19.4 35,21.9 37,24.5 38.8,27.1 40.6,29.7 42.1,32.4 43.6,35.1 44.9,37.8 46,40.6 34.4,43.5 34.1,41 33.8,38.4 33.3,35.8 32.7,33.1 32,30.3 31.1,27.4 30.2,24.5 29.2,21.5 28.2,18.3 26.8,15.3"></polygon><polygon points=" 46,40.6  45.3,45.1 41.7,47.9 37.2,47.1 34.4,43.5"></polygon><polygon points=" 81.2,17  79.5,20.5 77.8,24.1 76,27.8 74.1,31.5 72.1,35.2 70.1,39 68,42.8 65.7,46.6 63.2,50.4 60.8,54.3 59.1,53.6 60.2,49.1 61.2,44.7 62.3,40.5 63.5,36.3 64.6,32.2 65.7,28.2 66.8,24.2 67.9,20.3 69,16.5 70,12.8"></polygon><polygon points=" 69.6,13.8  81.2,17 70.5,11.4"></polygon><polygon points=" 81.2,17  83.4,19.9 77.6,21"></polygon><polygon points=" 12,52  96,52 96,56 12,56"></polygon><polygon points=" 96,52  72,54 84,42"></polygon><polygon points=" 38.6,56.1  36.9,63.1 34.9,70.2 32.8,77.2 30.5,84.2 28,91.2 25.2,98.2 22.3,105.1 19.1,111.9 15.6,118.7 11.8,125.3 10.1,124.6 12.1,117.2 14.1,110 16.1,102.8 18,95.7 19.9,88.7 21.5,81.7 23.1,74.7 24.5,67.7 25.8,60.7 26.9,53.8"></polygon><polygon points=" 26.7,54.8  38.6,56.1 27.2,51.9"></polygon><polygon points=" 38.6,56.1  41.2,58.6 35.7,60.6"></polygon><polygon points=" 33,83  33,185 21,191 21,81"></polygon><polygon points=" 33,83  36,85 31,88"></polygon><polygon points=" 66.5,60.4  65.3,63.3 64.1,66.2 62.9,69 61.6,71.7 60.2,74.4 58.8,76.9 57.4,79.4 55.8,81.7 54.1,84 52.8,86.3 51.1,85.6 51.8,83.1 52,80.3 52.3,77.6 52.7,74.8 53.1,72 53.4,69.2 53.8,66.3 54.2,63.4 54.5,60.5 54.9,57.5"></polygon><polygon points=" 54.6,58.4  66.5,60.4 55.3,55.7"></polygon><polygon points=" 66.5,60.4  69,63 63.4,64.7"></polygon><polygon points=" 62,87  62,173 50,179 50,85"></polygon><polygon points=" 62,87  65,89 60,92"></polygon><polygon points=" 27,84  92,84 92,88 27,88"></polygon><polygon points=" 92,84  68,86 80,74"></polygon><polygon points=" 27,114  86,114 86,118 27,118"></polygon><polygon points=" 86,114  66,116 76,105"></polygon><polygon points=" 27,144  86,144 86,148 27,148"></polygon><polygon points=" 86,144  66,146 76,135"></polygon><polygon points=" 27,174  97,174 97,178 27,178"></polygon><polygon points=" 97,174  73,176 85,164"></polygon><polygon points=" 108,62  176,62 176,66 108,66"></polygon><polygon points=" 182,64  181.8,80.9 181.5,96.5 181,110.7 180.3,123.6 179.4,135.1 178.2,145.2 176.9,154 175.3,161.6 173.4,167.9 171.1,173.1 160.6,167.3 162.1,163.8 163.6,158.6 165.1,151.9 166.3,143.7 167.4,133.9 168.3,122.8 169,110.2 169.5,96.2 169.8,80.8 170,64"></polygon><polygon points=" 170,62  176,57 187,66 182,69 170,74"></polygon><polygon points=" 171.1,173.1  169.7,175.3 168.2,177.2 166.6,179 164.7,180.6 162.7,181.9 160.5,183 158.3,183.9 155.9,184.5 153.4,184.8 151,185 151,173 152.3,172.9 153.6,172.7 154.7,172.4 155.7,172.1 156.6,171.6 157.5,171 158.3,170.3 159.1,169.5 159.8,168.5 160.6,167.3"></polygon><polygon points=" 151,179  151,173 131,173 131,176"></polygon><polygon points=" 146,19  146,63 134,63 134,17"></polygon><polygon points=" 146,19  149,21 144,24"></polygon><polygon points=" 134,63  136.4,66.6 140,69 143.6,66.6 146,63"></polygon><polygon points=" 146,63  145.2,81.6 143.5,98.9 140.8,114.9 137.2,129.6 132.7,142.9 127.2,154.9 120.7,165.4 113.2,174.5 104.8,181.9 95.4,187.7 94.5,186.2 102.2,179.1 109.1,171 115.1,161.8 120.3,151.5 124.7,140 128.3,127.2 131,113.1 132.8,97.7 133.8,81 134,63"></polygon></g></svg>