<svg version="1.1" viewBox="0 0 200 200" xmlns="http://www.w3.org/2000/svg" xmlns:cc="http://creativecommons.org/ns#" xmlns:dc="http://purl.org/dc/elements/1.1/" xmlns:rdf="http://www.w3.org/1999/02/22-rdf-syntax-ns#"><g><polygon points=" 29.3,14.3  31.4,16.9 33.8,19.4 36,21.9 38,24.5 39.8,27.1 41.6,29.7 43.1,32.4 44.6,35.1 45.9,37.8 47,40.6 35.4,43.5 35.1,41 34.8,38.4 34.3,35.8 33.7,33.1 33,30.3 32.1,27.4 31.2,24.5 30.2,21.5 29.2,18.3 27.8,15.3"></polygon><polygon points=" 47,40.6  46.3,45.1 42.7,47.9 38.2,47.1 35.4,43.5"></polygon><polygon points=" 82.4,16.7  80.8,20.3 79.2,24 77.4,27.7 75.6,31.4 73.6,35.2 71.6,39 69.4,42.8 67,46.7 64.4,50.5 61.8,54.3 60.1,53.6 61.4,49.1 62.6,44.7 63.8,40.4 65,36.2 66.1,32.2 67.2,28.2 68.2,24.3 69.2,20.5 70.1,16.8 70.9,13.1"></polygon><polygon points=" 70.6,14.1  82.4,16.7 71.4,11.6"></polygon><polygon points=" 82.4,16.7  84.6,19.5 79,20.9"></polygon><polygon points=" 12,52  98,52 98,56 12,56"></polygon><polygon points=" 98,52  74,54 86,42"></polygon><polygon points=" 39.6,56.2  37.6,63.3 35.5,70.3 33.2,77.3 30.8,84.3 28.2,91.3 25.4,98.2 22.4,105.1 19.2,111.9 15.6,118.7 11.8,125.3 10.1,124.6 12.1,117.2 14.2,110 16.2,102.8 18.2,95.7 20.1,88.6 21.9,81.6 23.6,74.6 25.1,67.6 26.6,60.6 27.9,53.6"></polygon><polygon points=" 27.7,54.6  39.6,56.2 28.3,51.8"></polygon><polygon points=" 39.6,56.2  42.1,58.8 36.6,60.7"></polygon><polygon points=" 34,83  34,185 22,191 22,81"></polygon><polygon points=" 34,83  37,85 32,88"></polygon><polygon points=" 68.4,60.7  67,63.6 65.7,66.4 64.3,69.2 62.9,71.9 61.4,74.5 59.9,77 58.4,79.4 56.8,81.8 55.1,84 53.8,86.3 52.1,85.6 52.8,83 53,80.3 53.4,77.5 53.9,74.7 54.3,71.9 54.8,69.1 55.3,66.1 55.9,63.2 56.4,60.2 56.9,57.1"></polygon><polygon points=" 56.6,58.1  68.4,60.7 57.4,55.6"></polygon><polygon points=" 68.4,60.7  70.6,63.5 65,64.9"></polygon><polygon points=" 63,87  63,173 51,179 51,85"></polygon><polygon points=" 63,87  66,89 61,92"></polygon><polygon points=" 28,84  94,84 94,88 28,88"></polygon><polygon points=" 94,84  70,86 82,74"></polygon><polygon points=" 28,114  88,114 88,118 28,118"></polygon><polygon points=" 88,114  64,116 76,104"></polygon><polygon points=" 28,144  88,144 88,148 28,148"></polygon><polygon points=" 88,144  64,146 76,134"></polygon><polygon points=" 28,174  99,174 99,178 28,178"></polygon><polygon points=" 99,174  75,176 87,164"></polygon><polygon points=" 141.7,16.9  139.8,25 137.7,32.9 135.2,40.6 132.4,48 129.4,55.2 126,62.2 122.2,69 118.1,75.5 113.6,81.7 108.7,87.5 107.2,86.4 110.4,79.7 113.4,72.9 116.3,66.1 119,59.2 121.5,52.1 123.7,45 125.6,37.7 127.3,30.3 128.7,22.7 129.9,14.9"></polygon><polygon points=" 129.7,15.9  141.7,16.9 130.2,13"></polygon><polygon points=" 141.7,16.9  144.3,19.4 138.9,21.5"></polygon><polygon points=" 123,60  175,60 175,64 123,64"></polygon><polygon points=" 180.5,64.3  179,66.8 177.3,69.4 175.4,72.2 173.4,75.1 171.1,78.2 168.7,81.4 166,84.7 163.1,88.1 159.9,91.7 156.7,95.4 155.2,94.5 157.4,90 159.2,85.7 161,81.6 162.7,77.8 164.3,74.2 165.6,70.9 166.8,67.7 167.9,64.8 168.7,62.1 169.4,59.6"></polygon><polygon points=" 169,60  175,55 186,64 181,67 169,72"></polygon><polygon points=" 147,75  146.1,92.6 144.3,108.9 141.4,123.9 137.4,137.5 132.3,149.7 126.2,160.4 119,169.7 110.7,177.4 101.5,183.5 91.3,187.8 90.6,186.1 99.4,180.3 107.2,173.4 113.9,165.5 119.7,156.5 124.6,146.2 128.5,134.7 131.5,121.8 133.6,107.5 134.8,91.9 135,75"></polygon><polygon points=" 135,76  147,75 135,72.6"></polygon><polygon points=" 147,75  150,77 145,80"></polygon><polygon points=" 142.9,92.9  144.8,104 147,114.4 149.7,124.1 153,133 156.7,141.3 161,148.9 165.9,155.8 171.3,162 177.3,167.6 183.9,172.7 176,183.2 168.8,176.8 162.5,169.8 156.9,162.2 152.2,153.9 148.2,145.1 145.1,135.7 142.7,125.8 141.2,115.4 140.6,104.4 141.1,93"></polygon><polygon points=" 176,183.2  183.9,172.7 186.9,174.9"></polygon></g></svg>