<svg version="1.1" viewBox="0 0 200 200" xmlns="http://www.w3.org/2000/svg" xmlns:cc="http://creativecommons.org/ns#" xmlns:dc="http://purl.org/dc/elements/1.1/" xmlns:rdf="http://www.w3.org/1999/02/22-rdf-syntax-ns#"><g><polygon points=" 76.1,18.2  70.9,29.3 65.5,40.2 59.8,50.8 53.9,61.2 47.8,71.3 41.4,81.2 34.7,90.8 27.7,100 20.4,109 12.7,117.5 11.2,116.4 17.3,106.7 23.3,97 29.2,87.2 34.9,77.2 40.4,67.1 45.8,56.7 50.9,46.2 55.8,35.5 60.5,24.6 65,13.5"></polygon><polygon points=" 64.6,14.5  76.1,18.2 65.6,12.3"></polygon><polygon points=" 76.1,18.2  78.1,21.2 72.3,22"></polygon><polygon points=" 53,74  53,183 41,189 41,72"></polygon><polygon points=" 53,74  56,76 51,79"></polygon><polygon points=" 110.3,17.8  107.4,24.8 104.1,31.5 100.4,37.9 96.3,44.2 91.8,50.1 87,55.9 81.8,61.3 76.1,66.5 70.1,71.3 63.5,75.6 62.4,74.3 67.5,68.5 72.3,62.7 76.8,57 81,51.1 84.9,45.2 88.4,39.2 91.6,33.1 94.4,26.8 96.8,20.5 99,14"></polygon><polygon points=" 98.6,14.9  110.3,17.8 99.5,12.5"></polygon><polygon points=" 110.3,17.8  112.5,20.7 106.8,21.9"></polygon><polygon points=" 89,44  187,44 187,48 89,48"></polygon><polygon points=" 187,44  163,46 175,34"></polygon><polygon points=" 83,59  151,59 151,63 83,63"></polygon><polygon points=" 158.6,62  93.3,118.6 80.9,113.5 141.8,61"></polygon><polygon points=" 145,59  151,54 162,63 157,66 145,71"></polygon><polygon points=" 100,103  174,103 174,107 100,107"></polygon><polygon points=" 180,105  179.8,115.8 179.5,125.8 178.9,135 178.2,143.2 177.1,150.6 175.9,157.2 174.3,163.1 172.5,168.1 170.2,172.5 167.3,176.1 158.8,167.6 160,166 161.5,163.3 162.9,159.5 164.2,154.6 165.3,148.7 166.2,141.9 167,134 167.5,125.3 167.8,115.6 168,105"></polygon><polygon points=" 168,103  174,98 185,107 180,110 168,115"></polygon><polygon points=" 167.3,176.1  165.5,177.8 163.6,179.3 161.7,180.6 159.6,181.7 157.5,182.7 155.3,183.5 153,184.2 150.7,184.6 148.4,184.9 146,185 146,173 147.5,172.9 148.9,172.7 150.3,172.5 151.7,172.1 152.9,171.6 154.1,171.1 155.3,170.4 156.5,169.6 157.7,168.7 158.8,167.6"></polygon><polygon points=" 146,179  146,173 126,173 126,176"></polygon><polygon points=" 132.9,108.5  128.7,115.6 124.2,122.4 119.3,128.9 113.9,135.1 108.2,141.1 102.1,146.7 95.6,152 88.6,157 81.3,161.6 73.4,165.7 72.5,164.2 79.1,158.5 85.3,152.8 91.2,147.1 96.8,141.3 102,135.3 106.8,129.2 111.2,122.9 115.2,116.5 118.9,109.9 122.1,103.2"></polygon><polygon points=" 121.7,104.1  132.9,108.5 122.7,102.1"></polygon><polygon points=" 132.9,108.5  134.7,111.7 128.8,112.1"></polygon><polygon points=" 157.6,107.2  154.4,117.9 150.5,128.1 145.8,137.6 140.3,146.5 134,154.8 127,162.4 119.2,169.4 110.7,175.6 101.4,181.1 91.4,185.7 90.5,184.2 99.4,177.9 107.4,171.3 114.8,164.5 121.4,157.2 127.3,149.6 132.4,141.5 136.8,133 140.6,124 143.6,114.6 145.9,104.6"></polygon><polygon points=" 145.7,105.6  157.6,107.2 146.3,102.8"></polygon><polygon points=" 157.6,107.2  160.1,109.8 154.6,111.7"></polygon></g></svg>