<svg version="1.1" viewBox="0 0 200 200" xmlns="http://www.w3.org/2000/svg" xmlns:cc="http://creativecommons.org/ns#" xmlns:dc="http://purl.org/dc/elements/1.1/" xmlns:rdf="http://www.w3.org/1999/02/22-rdf-syntax-ns#"><g><polygon points=" 65.3,17.9  60.9,29 56.4,39.9 51.7,50.5 46.8,60.9 41.7,71 36.4,80.9 30.9,90.5 25.2,99.8 19.1,108.8 12.7,117.4 11.2,116.5 15.8,106.9 20.5,97.2 25.1,87.4 29.6,77.5 34,67.4 38.3,57.1 42.4,46.6 46.4,35.9 50.3,25 54,13.9"></polygon><polygon points=" 53.6,14.9  65.3,17.9 54.5,12.5"></polygon><polygon points=" 65.3,17.9  67.4,20.8 61.7,21.9"></polygon><polygon points=" 46,74  46,183 34,189 34,72"></polygon><polygon points=" 46,74  49,76 44,79"></polygon><polygon points=" 130,14  130,45 118,51 118,12"></polygon><polygon points=" 130,14  133,16 128,19"></polygon><polygon points=" 85.3,16.9  87.7,18.6 90.3,20.1 92.8,21.7 95,23.5 97.2,25.5 99.2,27.6 101,29.8 102.7,32.2 104.3,34.6 105.7,37.2 94.3,41 93.9,38.8 93.4,36.6 92.8,34.3 92,32.1 91.1,29.8 90.1,27.5 88.9,25.2 87.5,22.8 86.1,20.4 84.1,18.3"></polygon><polygon points=" 105.7,37.2  105.3,41.8 101.9,44.8 97.3,44.4 94.3,41"></polygon><polygon points=" 164.9,22.5  163.6,24.1 162.2,25.8 160.5,27.8 158.7,30 156.6,32.5 154.3,35.2 151.8,38.1 148.9,41.3 145.8,44.7 142.7,48.4 141.2,47.5 143.5,43.1 145.3,38.9 147.1,35.1 148.6,31.6 150.1,28.4 151.3,25.5 152.3,22.9 153.1,20.7 153.8,18.7 154.1,17.2"></polygon><polygon points=" 153.7,18.1  164.9,22.5 154.7,16.1"></polygon><polygon points=" 164.9,22.5  166.7,25.7 160.8,26.1"></polygon><polygon points=" 77.9,35.9  78.7,42.3 79.4,48.2 79.7,53.7 79.7,58.8 79.5,63.5 79,67.7 78.1,71.6 77,75.2 75.4,78.5 73.2,81.4 65.1,72.5 66.3,71.7 67.6,70.3 69,68.2 70.3,65.4 71.5,61.9 72.7,57.9 73.7,53.3 74.6,48.1 75.4,42.3 76.1,36"></polygon><polygon points=" 73.2,81.4  68.9,82.9 64.7,81 63.2,76.6 65.1,72.5"></polygon><polygon points=" 78,47  177,47 177,51 78,51"></polygon><polygon points=" 182.6,51  181.3,53.3 179.9,55.6 178.4,58.1 176.7,60.7 174.9,63.4 173,66.2 170.9,69 168.6,72 166.1,75.1 163.7,78.4 162.2,77.5 163.7,73.8 164.8,70 165.9,66.5 167,63.2 168,60 168.9,57.1 169.6,54.2 170.3,51.6 170.9,49.2 171.3,46.9"></polygon><polygon points=" 171,47  177,42 188,51 183,54 171,59"></polygon><polygon points=" 102,64  102,92 90,98 90,58"></polygon><polygon points=" 96,64  152,64 152,68 96,68"></polygon><polygon points=" 158,66  158,92 146,98 146,66"></polygon><polygon points=" 146,64  152,59 163,68 158,72 146,66"></polygon><polygon points=" 96,88  152,88 152,92 96,92"></polygon><polygon points=" 64,116  184,116 184,120 64,120"></polygon><polygon points=" 184,116  160,118 172,106"></polygon><polygon points=" 100,101  100,181 88,187 88,99"></polygon><polygon points=" 100,101  103,103 98,106"></polygon><polygon points=" 159,101  159,178 147,184 147,99"></polygon><polygon points=" 159,101  162,103 157,106"></polygon><polygon points=" 94,142  153,142 153,146 94,146"></polygon><polygon points=" 94,170  153,170 153,174 94,174"></polygon></g></svg>