<svg version="1.1" viewBox="0 0 200 200" xmlns="http://www.w3.org/2000/svg" xmlns:cc="http://creativecommons.org/ns#" xmlns:dc="http://purl.org/dc/elements/1.1/" xmlns:rdf="http://www.w3.org/1999/02/22-rdf-syntax-ns#"><g><polygon points=" 45,16  45,183 33,189 33,14"></polygon><polygon points=" 45,16  48,18 43,21"></polygon><polygon points=" 25.8,57  26,62.7 26.3,68.1 26.3,73.1 26.1,77.8 25.8,82.1 25.3,86.2 24.6,89.9 23.8,93.4 22.8,96.6 21.6,99.5 11.4,93.3 12.7,91.7 14,89.6 15.3,87 16.6,83.9 17.9,80.5 19.1,76.6 20.4,72.3 21.6,67.5 22.9,62.4 24,56.9"></polygon><polygon points=" 21.6,99.5  17.9,102.2 13.4,101.5 10.7,97.8 11.4,93.3"></polygon><polygon points=" 48.3,52.2  50.9,55 53.6,57.6 56,60.2 58.3,62.9 60.3,65.7 62.2,68.4 63.9,71.2 65.5,73.9 66.8,76.8 68,79.6 56.4,82.5 56.1,80 55.7,77.5 55.1,74.8 54.4,72.1 53.5,69.2 52.5,66.2 51.3,63.1 50,59.9 48.6,56.6 46.8,53.3"></polygon><polygon points=" 68,79.6  67.3,84.1 63.7,86.9 59.2,86.1 56.4,82.5"></polygon><polygon points=" 70,37  133,37 133,41 70,41"></polygon><polygon points=" 133,37  109,39 121,27"></polygon><polygon points=" 108,17  108,57 96,63 96,15"></polygon><polygon points=" 108,17  111,19 106,22"></polygon><polygon points=" 63,58  187,58 187,62 63,62"></polygon><polygon points=" 187,58  163,60 175,48"></polygon><polygon points=" 157.3,20.8  159.7,22.1 162.2,23.1 164.7,24.4 167,25.9 169.2,27.5 171.2,29.3 173.2,31.2 175,33.3 176.7,35.5 178.3,37.8 167.3,42.6 166.8,40.5 166.2,38.4 165.4,36.4 164.6,34.3 163.6,32.3 162.4,30.3 161.2,28.2 159.8,26.1 158.2,24 156.3,22.3"></polygon><polygon points=" 178.3,37.8  178.3,42.4 175.1,45.7 170.6,45.7 167.3,42.6"></polygon><polygon points=" 152,17  152.7,49.6 154.7,77.8 157.8,102 161.6,122.1 165.9,138.6 170.5,151.4 175,160.8 179,166.9 181.9,169.7 182,170 182,182 175.1,179.6 169.7,174.4 164.5,166.7 159.4,156 154.5,142.1 149.9,124.8 145.9,103.8 142.8,79 140.7,50.1 140,17"></polygon><polygon points=" 140,18  152,17 140,14.6"></polygon><polygon points=" 152,17  155,19 150,22"></polygon><polygon points=" 182,170  186.2,171.8 188,176 186.2,180.2 182,182"></polygon><polygon points=" 182,171  184,145 182,145 176,171"></polygon><polygon points=" 180.6,86.1  177.3,100.3 173.8,113.3 170.1,125.2 166.3,136 162.3,145.7 158.2,154.3 153.9,161.8 149.3,168.1 144.5,173 139.5,176.6 138.4,175.3 141.7,170.6 144.9,165 148.1,158.6 151.3,151.2 154.5,142.6 157.5,133.1 160.5,122.4 163.4,110.6 166.2,97.7 168.9,83.7"></polygon><polygon points=" 168.7,84.7  180.6,86.1 169.2,81.9"></polygon><polygon points=" 180.6,86.1  183.2,88.7 177.7,90.6"></polygon><polygon points=" 98.5,67  98.5,166.2 87.5,171.7 87.5,65"></polygon><polygon points=" 98.5,67  101.2,69 96.5,72"></polygon><polygon points=" 117.5,67  117.5,160.2 106.5,165.7 106.5,65"></polygon><polygon points=" 117.5,67  120.2,69 115.5,72"></polygon><polygon points=" 68.2,95.4  70.8,98.8 73.2,102.4 75.3,106.2 77.3,110.2 79,114.4 80.5,118.7 81.8,123.2 83,127.8 83.9,132.6 84.7,137.5 72.7,138.4 72.7,133.8 72.5,129.4 72.1,125 71.6,120.7 71.1,116.5 70.3,112.4 69.5,108.3 68.6,104.3 67.7,100.2 66.6,96.3"></polygon><polygon points=" 84.7,137.5  83.2,141.8 79.2,143.9 74.9,142.5 72.7,138.4"></polygon><polygon points=" 141.5,99.5  139.8,104.3 138.1,109 136.3,113.8 134.5,118.5 132.7,123.2 130.8,127.9 128.8,132.5 126.7,137.2 124.3,141.7 121.8,146.2 120.1,145.7 120.7,140.6 121.5,135.5 122.5,130.6 123.5,125.6 124.6,120.7 125.6,115.8 126.7,110.9 127.8,106 128.8,101.2 129.9,96.3"></polygon><polygon points=" 129.6,97.3  141.5,99.5 130.4,94.7"></polygon><polygon points=" 141.5,99.5  143.8,102.3 138.2,103.8"></polygon><polygon points=" 64.6,169.9  72.3,168.4 80,167 87.8,165.6 95.7,164.3 103.6,163 111.5,161.8 119.5,160.6 127.5,159.6 135.6,158.7 143.8,158.1 144.1,159.8 136.3,162.4 128.6,164.8 120.8,167 113.1,169.2 105.3,171.3 97.7,173.4 90,175.4 82.4,177.5 74.8,179.5 67.3,181.6"></polygon><polygon points=" 67.3,181.6  64.6,169.9 62.6,170.3"></polygon><polygon points=" 67.3,181.6  69.9,184 72.4,177.3"></polygon></g></svg>