<svg version="1.1" viewBox="0 0 200 200" xmlns="http://www.w3.org/2000/svg" xmlns:cc="http://creativecommons.org/ns#" xmlns:dc="http://purl.org/dc/elements/1.1/" xmlns:rdf="http://www.w3.org/1999/02/22-rdf-syntax-ns#"><g><polygon points=" 71.3,27.2  67.2,32.3 62.8,37.2 58,42.1 52.9,46.9 47.4,51.5 41.6,56.1 35.4,60.5 28.8,64.8 21.9,68.9 14.4,72.7 13.5,71.2 19.7,65.8 25.6,60.5 31.3,55.4 36.7,50.3 41.7,45.3 46.3,40.3 50.7,35.3 54.6,30.3 58.2,25.3 61.4,20.4"></polygon><polygon points=" 60.9,21.2  71.3,27.2 61.9,19.7"></polygon><polygon points=" 71.3,27.2  72.6,30.5 66.8,30.2"></polygon><polygon points=" 78.9,76.6  73.6,82.3 68,87.9 62.2,93.3 56.1,98.5 49.8,103.6 43.3,108.5 36.5,113.2 29.5,117.7 22.1,121.9 14.4,125.7 13.5,124.2 20,118.7 26.3,113.3 32.5,108 38.5,102.6 44.3,97.2 49.8,91.7 55.1,86.1 60.2,80.5 65.1,74.7 69.7,68.9"></polygon><polygon points=" 69.1,69.6  78.9,76.6 70.1,68.4"></polygon><polygon points=" 78.9,76.6  79.9,80 74.2,79.1"></polygon><polygon points=" 83,130.4  77.5,136.8 71.6,143 65.5,149.1 59.1,155 52.4,160.8 45.5,166.4 38.2,171.8 30.6,177.1 22.7,182 14.5,186.7 13.4,185.2 20.5,179 27.4,172.8 34,166.7 40.5,160.6 46.7,154.5 52.6,148.3 58.3,142.1 63.6,135.8 68.8,129.5 73.6,123"></polygon><polygon points=" 73,123.8  83,130.4 74.1,122.5"></polygon><polygon points=" 83,130.4  84.2,133.9 78.4,133.1"></polygon><polygon points=" 84,66  186,66 186,70 84,70"></polygon><polygon points=" 186,66  162,68 174,56"></polygon><polygon points=" 120,17  120,53 108,53 108,15"></polygon><polygon points=" 120,17  123,19 118,22"></polygon><polygon points=" 108,53  110.4,56.6 114,59 117.6,56.6 120,53"></polygon><polygon points=" 120,53  119.1,72.2 117.2,90.3 114.3,107.1 110.3,122.7 105.2,137 99,149.9 91.7,161.6 83.4,171.8 73.9,180.5 63.5,187.7 62.4,186.2 71.4,177.7 79.3,168.3 86.2,158 92.2,146.5 97.2,133.9 101.3,120.2 104.4,105.2 106.6,89 107.8,71.6 108,53"></polygon><polygon points=" 168.4,97.7  163.3,111 157.7,123.3 151.5,134.7 144.6,145.2 137.2,154.8 129.2,163.5 120.6,171.1 111.4,177.8 101.6,183.3 91.3,187.8 90.6,186.1 99.7,180.1 108.2,173.5 116.2,166.2 123.7,158.3 130.5,149.6 136.9,140.1 142.7,129.8 148,118.7 152.7,106.8 156.9,94.1"></polygon><polygon points=" 156.6,95  168.4,97.7 157.4,92.5"></polygon><polygon points=" 168.4,97.7  170.6,100.6 164.9,101.9"></polygon><polygon points=" 120.9,68.9  123.4,85.1 126.6,100.1 130.5,113.7 135.4,126.1 141.1,137.2 147.7,147.1 155.1,155.8 163.4,163.3 172.7,169.7 182.8,175 177.1,186.9 165.9,180.2 155.8,172.3 146.9,163.2 139.3,153 132.8,141.7 127.6,129.2 123.6,115.7 120.8,101.2 119.2,85.6 119.1,69"></polygon><polygon points=" 177.1,186.9  182.8,175 188.4,177.7"></polygon><polygon points=" 138.3,19.7  141.9,21.4 145.5,23.1 148.9,24.9 152,27 155,29.2 157.7,31.6 160.2,34.2 162.5,36.9 164.5,39.8 166.4,42.9 155.3,47.5 154.5,44.9 153.5,42.3 152.4,39.7 150.9,37.1 149.3,34.5 147.4,31.9 145.3,29.2 142.9,26.6 140.3,23.8 137.3,21.2"></polygon><polygon points=" 166.4,42.9  166.3,47.5 163.1,50.7 158.5,50.7 155.3,47.5"></polygon></g></svg>