<svg version="1.1" viewBox="0 0 200 200" xmlns="http://www.w3.org/2000/svg" xmlns:cc="http://creativecommons.org/ns#" xmlns:dc="http://purl.org/dc/elements/1.1/" xmlns:rdf="http://www.w3.org/1999/02/22-rdf-syntax-ns#"><g><polygon points=" 55,15  55,64 43,70 43,13"></polygon><polygon points=" 55,15  58,17 53,20"></polygon><polygon points=" 49,36  88,36 88,40 49,40"></polygon><polygon points=" 88,36  68,38 78,27"></polygon><polygon points=" 26,65  26,184 14,190 14,59"></polygon><polygon points=" 20,65  82,65 82,69 20,69"></polygon><polygon points=" 87.5,67  87.5,172 76.5,177.5 76.5,67"></polygon><polygon points=" 76.5,65  82,60 92.5,69 87.5,72.5 76.5,67"></polygon><polygon points=" 72.5,80.5  69,90.8 65.3,100.7 61.4,110 57.2,118.9 52.7,127.4 47.9,135.3 42.8,142.7 37.4,149.6 31.7,155.9 25.6,161.6 24.3,160.3 28.7,153.5 33.1,146.5 37.3,139.2 41.3,131.5 45.1,123.5 48.7,115.1 52.1,106.3 55.2,97 58.2,87.4 60.9,77.3"></polygon><polygon points=" 60.6,78.2  72.5,80.5 61.4,75.6"></polygon><polygon points=" 72.5,80.5  74.8,83.3 69.2,84.8"></polygon><polygon points=" 30.3,87  36,91.5 41.3,96.4 46.3,101.6 51,107.1 55.4,112.9 59.6,118.9 63.5,125.1 67.1,131.5 70.4,138.2 73.5,145 62.3,149.3 59.9,142.6 57.4,136.1 54.6,129.8 51.5,123.6 48.3,117.5 44.8,111.5 41.1,105.6 37.2,99.9 33.2,94.1 29,88.3"></polygon><polygon points=" 73.5,145  73.3,149.6 70,152.8 65.4,152.6 62.3,149.3"></polygon><polygon points=" 20,168  82,168 82,172 20,172"></polygon><polygon points=" 109.5,52  109.5,109 98.5,109 98.5,46.5"></polygon><polygon points=" 98.5,109  100.7,112.3 104,114.5 107.3,112.3 109.5,109"></polygon><polygon points=" 109.5,109  109,119.6 108.1,129.8 106.9,139.3 105.3,148.2 103.2,156.6 100.8,164.3 98,171.4 94.7,177.8 90.9,183.5 86.6,188.4 85.3,187.5 87.9,181.8 90.2,175.7 92.3,169.3 94.1,162.3 95.7,154.8 96.9,146.8 97.8,138.2 98.3,129 98.6,119.3 98.5,109"></polygon><polygon points=" 104,52  187,52 187,56 104,56"></polygon><polygon points=" 187,52  163,54 175,42"></polygon><polygon points=" 105,83  144,83 144,87 105,87"></polygon><polygon points=" 144,83  124,85 134,74"></polygon><polygon points=" 120.5,108  120.5,162 109.5,167.5 109.5,102.5"></polygon><polygon points=" 115,108  137,108 137,112 115,112"></polygon><polygon points=" 142.5,110  142.5,154 131.5,159.5 131.5,110"></polygon><polygon points=" 131.5,108  137,103 147.5,112 142.5,115.5 131.5,110"></polygon><polygon points=" 115,146  137,146 137,150 115,150"></polygon><polygon points=" 152,15.7  153.6,46.7 155.6,74.5 158,98.9 160.9,120 164.1,137.7 167.7,152 171.5,162.8 175.4,169.9 178.8,173.2 181,174 181,186 172.4,183.4 165.7,176.9 160.6,167.6 156.2,155.4 152.3,140.2 149,121.8 146.1,100.3 143.6,75.5 141.6,47.5 140,16.2"></polygon><polygon points=" 140,17.2  152,15.7 139.9,13.9"></polygon><polygon points=" 152,15.7  155.1,17.6 150.2,20.8"></polygon><polygon points=" 181,174  185.2,175.8 187,180 185.2,184.2 181,186"></polygon><polygon points=" 181,175  183,149 181,149 175,175"></polygon><polygon points=" 180.7,81.1  176.8,98.1 172.7,113.8 168.3,128.1 163.6,141.1 158.5,152.6 153.2,162.8 147.5,171.6 141.5,178.9 135.1,184.7 128.4,188.7 127.5,187.2 132.5,181.9 137.3,175.5 142,168 146.5,159.3 150.8,149.3 154.8,137.9 158.7,125.1 162.3,111.1 165.7,95.6 168.9,78.8"></polygon><polygon points=" 168.7,79.8  180.7,81.1 169.2,76.9"></polygon><polygon points=" 180.7,81.1  183.2,83.6 177.8,85.6"></polygon><polygon points=" 156.3,18.7  158.6,19.8 161.1,20.6 163.5,21.5 165.8,22.6 168,23.7 170,25 172,26.4 173.9,27.9 175.7,29.5 177.4,31.2 167.3,37.6 166.7,36 166,34.3 165.1,32.6 164.2,30.9 163.1,29.1 161.8,27.4 160.5,25.5 159,23.7 157.4,21.7 155.4,20.2"></polygon><polygon points=" 177.4,31.2  178.1,35.7 175.6,39.5 171.1,40.2 167.3,37.6"></polygon></g></svg>