<svg version="1.1" viewBox="0 0 200 200" xmlns="http://www.w3.org/2000/svg" xmlns:cc="http://creativecommons.org/ns#" xmlns:dc="http://purl.org/dc/elements/1.1/" xmlns:rdf="http://www.w3.org/1999/02/22-rdf-syntax-ns#"><g><polygon points=" 12,58  71,58 71,62 12,62"></polygon><polygon points=" 71,58  51,60 61,49"></polygon><polygon points=" 48,16  48,181 36,187 36,14"></polygon><polygon points=" 48,16  51,18 46,21"></polygon><polygon points=" 45.7,61.9  43.7,71.5 41.4,80.9 38.9,90.1 36,99 32.9,107.8 29.6,116.2 25.9,124.5 21.9,132.4 17.5,140.1 12.7,147.4 11.2,146.5 14.1,138.4 17,130.3 19.8,122 22.4,113.7 24.9,105.1 27.1,96.5 29.1,87.6 30.9,78.6 32.5,69.4 33.9,60"></polygon><polygon points=" 33.7,61  45.7,61.9 34.2,58"></polygon><polygon points=" 45.7,61.9  48.3,64.4 42.9,66.5"></polygon><polygon points=" 45.3,84.6  48.2,85.9 51.3,86.9 54.2,88.2 57,89.7 59.7,91.4 62.2,93.3 64.6,95.3 66.8,97.6 68.9,99.9 70.8,102.5 60.2,108.1 59.4,105.8 58.4,103.5 57.2,101.3 55.9,99.1 54.5,96.9 52.8,94.7 51,92.5 49,90.3 46.9,88.1 44.4,86.2"></polygon><polygon points=" 70.8,102.5  71.2,107 68.4,110.6 63.8,111 60.2,108.1"></polygon><polygon points=" 99.3,14.1  102,16.7 104.9,19.1 107.5,21.6 109.9,24.1 112.2,26.7 114.2,29.3 116.1,32 117.9,34.7 119.4,37.5 120.8,40.3 109.3,43.9 108.9,41.4 108.3,38.8 107.6,36.2 106.7,33.5 105.6,30.6 104.4,27.7 103,24.8 101.5,21.6 99.9,18.4 97.9,15.3"></polygon><polygon points=" 120.8,40.3  120.3,44.8 116.8,47.8 112.3,47.3 109.3,43.9"></polygon><polygon points=" 165.1,17.2  163.2,20.8 161.1,24.5 158.9,28.1 156.7,31.9 154.2,35.6 151.7,39.4 149,43.1 146.1,46.9 143,50.7 139.7,54.4 138.2,53.5 140,48.9 141.8,44.4 143.6,40.1 145.3,35.9 147,31.8 148.6,27.7 150.1,23.8 151.5,20 152.8,16.2 154,12.5"></polygon><polygon points=" 153.6,13.5  165.1,17.2 154.6,11.3"></polygon><polygon points=" 165.1,17.2  167.1,20.2 161.3,21"></polygon><polygon points=" 79,52  185,52 185,56 79,56"></polygon><polygon points=" 185,52  161,54 173,42"></polygon><polygon points=" 111.5,56.4  109.3,63.5 106.9,70.5 104.2,77.6 101.2,84.6 98.1,91.6 94.6,98.5 90.9,105.4 86.9,112.2 82.5,118.9 77.7,125.4 76.2,124.5 79.2,117 82.1,109.7 85,102.5 87.7,95.4 90.2,88.3 92.6,81.3 94.7,74.3 96.6,67.3 98.4,60.4 99.9,53.5"></polygon><polygon points=" 99.6,54.4  111.5,56.4 100.3,51.7"></polygon><polygon points=" 111.5,56.4  114,59 108.4,60.7"></polygon><polygon points=" 104,83  104,185 92,191 92,81"></polygon><polygon points=" 104,83  107,85 102,88"></polygon><polygon points=" 147.2,61  145.7,63.9 144.1,66.7 142.6,69.4 141,72.1 139.3,74.7 137.7,77.2 136,79.6 134.2,81.9 132.3,84.1 130.8,86.4 129.1,85.5 130,83 130.5,80.2 131.1,77.4 131.7,74.5 132.4,71.7 133.1,68.8 133.8,65.9 134.5,62.9 135.2,59.9 136,56.8"></polygon><polygon points=" 135.6,57.7  147.2,61 136.5,55.4"></polygon><polygon points=" 147.2,61  149.3,63.9 143.6,65"></polygon><polygon points=" 140,87  140,173 128,179 128,85"></polygon><polygon points=" 140,87  143,89 138,92"></polygon><polygon points=" 98,84  180,84 180,88 98,88"></polygon><polygon points=" 180,84  156,86 168,74"></polygon><polygon points=" 98,114  173,114 173,118 98,118"></polygon><polygon points=" 173,114  149,116 161,104"></polygon><polygon points=" 98,144  173,144 173,148 98,148"></polygon><polygon points=" 173,144  149,146 161,134"></polygon><polygon points=" 98,174  187,174 187,178 98,178"></polygon><polygon points=" 187,174  163,176 175,164"></polygon></g></svg>