<svg version="1.1" viewBox="0 0 200 200" xmlns="http://www.w3.org/2000/svg" xmlns:cc="http://creativecommons.org/ns#" xmlns:dc="http://purl.org/dc/elements/1.1/" xmlns:rdf="http://www.w3.org/1999/02/22-rdf-syntax-ns#"><g><polygon points=" 28,35  28,164 16,170 16,29"></polygon><polygon points=" 22,35  65,35 65,39 22,39"></polygon><polygon points=" 71,37  71,158 59,164 59,37"></polygon><polygon points=" 59,35  65,30 76,39 71,43 59,37"></polygon><polygon points=" 22,91  65,91 65,95 22,95"></polygon><polygon points=" 22,148  65,148 65,152 22,152"></polygon><polygon points=" 77,28  185,28 185,32 77,32"></polygon><polygon points=" 185,28  161,30 173,18"></polygon><polygon points=" 95,53  95,179 83,185 83,47"></polygon><polygon points=" 89,53  121,53 121,57 89,57"></polygon><polygon points=" 126.5,55  126.5,169 115.5,169 115.5,55"></polygon><polygon points=" 115.5,53  121,48 131.5,57 126.5,60.5 115.5,55"></polygon><polygon points=" 115.5,169  117.7,172.3 121,174.5 124.3,172.3 126.5,169"></polygon><polygon points=" 126.5,169  126.3,171.4 126,173.7 125.3,176 124.3,178.1 122.9,180.1 121.1,181.7 119.1,183 116.9,183.8 114.6,184.3 112.2,184.5 112.2,173.5 113.2,173.4 113.8,173.3 114.2,173.1 114.5,173 114.6,172.8 114.8,172.6 115,172.1 115.2,171.4 115.4,170.3 115.5,169"></polygon><polygon points=" 112.2,179  112.2,173.5 102.2,173.5 102.2,176.2"></polygon><polygon points=" 96.3,88.1  99,90.5 101.7,93.1 104.2,95.9 106.5,99 108.6,102.3 110.5,105.9 112.3,109.6 113.8,113.6 115.2,117.7 116.4,122 104.5,124 104.2,120 103.7,116.2 103,112.5 102.3,108.9 101.4,105.5 100.3,102.1 99.2,98.8 97.9,95.6 96.6,92.3 94.9,89.3"></polygon><polygon points=" 116.4,122  115.3,126.4 111.4,128.9 107,127.8 104.5,124"></polygon><polygon points=" 144.5,53  144.5,179.2 133.5,184.7 133.5,47.5"></polygon><polygon points=" 139,53  171,53 171,57 139,57"></polygon><polygon points=" 177,55  177,169 165,169 165,55"></polygon><polygon points=" 165,53  171,48 182,57 177,61 165,55"></polygon><polygon points=" 165,169  167.4,172.6 171,175 174.6,172.6 177,169"></polygon><polygon points=" 177,169  176.8,171.5 176.4,174 175.6,176.4 174.3,178.7 172.7,180.7 170.7,182.3 168.4,183.6 166,184.4 163.5,184.8 161,185 161,173 162.2,172.9 163.1,172.7 163.7,172.5 164,172.4 164.2,172.2 164.4,172 164.5,171.7 164.7,171.1 164.9,170.2 165,169"></polygon><polygon points=" 161,179  161,173 151,173 151,176"></polygon><polygon points=" 146.3,88.1  149,90.5 151.7,93.1 154.2,95.9 156.5,99 158.6,102.3 160.5,105.9 162.3,109.6 163.8,113.6 165.2,117.7 166.4,122 154.5,124 154.2,120 153.7,116.2 153,112.5 152.3,108.9 151.4,105.5 150.3,102.1 149.2,98.8 147.9,95.6 146.6,92.3 144.9,89.3"></polygon><polygon points=" 166.4,122  165.3,126.4 161.4,128.9 157,127.8 154.5,124"></polygon></g></svg>