<svg version="1.1" viewBox="0 0 200 200" xmlns="http://www.w3.org/2000/svg" xmlns:cc="http://creativecommons.org/ns#" xmlns:dc="http://purl.org/dc/elements/1.1/" xmlns:rdf="http://www.w3.org/1999/02/22-rdf-syntax-ns#"><g><polygon points=" 14,53  70,53 70,57 14,57"></polygon><polygon points=" 70,53  50,55 60,44"></polygon><polygon points=" 47,16  47,171 35,171 35,14"></polygon><polygon points=" 47,16  50,18 45,21"></polygon><polygon points=" 35,171  37.4,174.6 41,177 44.6,174.6 47,171"></polygon><polygon points=" 47,171  46.8,173.5 46.4,176 45.6,178.4 44.3,180.7 42.7,182.7 40.7,184.3 38.4,185.6 36,186.4 33.5,186.8 31,187 31,175 32.2,174.9 33.1,174.7 33.7,174.5 34,174.4 34.2,174.2 34.4,174 34.5,173.7 34.7,173.1 34.9,172.2 35,171"></polygon><polygon points=" 31,181  31,175 19,175 19,178"></polygon><polygon points=" 12.1,116.2  17.8,113.5 23.5,110.9 29.2,108.2 34.9,105.5 40.6,102.9 46.3,100.2 52,97.6 57.8,95 63.6,92.5 69.5,90.2 70.4,91.7 65.5,95.8 60.4,99.6 55.3,103.3 50,106.8 44.7,110.3 39.4,113.7 34,117.1 28.6,120.4 23.1,123.6 17.6,126.8"></polygon><polygon points=" 17.6,126.8  12.1,116.2 10.3,117.1"></polygon><polygon points=" 17.6,126.8  20.7,128.6 21.5,121.4"></polygon><polygon points=" 82.9,14.9  83.8,21.5 84.4,27.6 84.8,33.3 84.8,38.6 84.5,43.4 84,47.8 83.1,51.9 82,55.6 80.4,59 78.3,62.1 69.8,53.6 71.1,52.6 72.5,50.9 73.9,48.6 75.2,45.6 76.5,41.9 77.6,37.7 78.6,32.9 79.5,27.5 80.4,21.5 81.1,15"></polygon><polygon points=" 78.3,62.1  74.1,63.8 69.8,62.1 68.1,57.8 69.8,53.6"></polygon><polygon points=" 82,26  179,26 179,30 82,30"></polygon><polygon points=" 184.6,30  183.3,32.2 182,34.6 180.5,37.1 178.9,39.7 177.2,42.5 175.4,45.4 173.4,48.4 171.3,51.6 168.9,54.8 166.8,58.3 165.1,57.6 166.5,53.6 167.4,49.8 168.4,46.1 169.3,42.7 170.2,39.4 171,36.3 171.7,33.5 172.3,30.8 172.9,28.2 173.3,25.9"></polygon><polygon points=" 173,26  179,21 190,30 185,33 173,38"></polygon><polygon points=" 74,68  185,68 185,72 74,72"></polygon><polygon points=" 185,68  161,70 173,58"></polygon><polygon points=" 135,45  135,184 123,190 123,43"></polygon><polygon points=" 135,45  138,47 133,50"></polygon><polygon points=" 98,87  98,145 86,151 86,81"></polygon><polygon points=" 92,87  166,87 166,91 92,91"></polygon><polygon points=" 100.3,98  102.7,99.8 105.4,101.4 107.8,103.1 110.1,104.8 112.3,106.7 114.3,108.5 116.2,110.5 118,112.5 119.6,114.6 121.1,116.7 110.2,121.7 109.7,119.8 109.1,117.7 108.3,115.6 107.4,113.4 106.4,111.2 105.2,108.9 103.9,106.6 102.5,104.1 101,101.6 99.1,99.3"></polygon><polygon points=" 121.1,116.7  121.3,121.3 118.2,124.7 113.6,124.8 110.2,121.7"></polygon><polygon points=" 159.8,100.7  157.8,103.4 155.8,106.1 153.7,108.8 151.6,111.4 149.3,114.1 147,116.6 144.5,119.2 142,121.6 139.2,124 136.7,126.5 135.2,125.4 137,122.3 138.5,119.1 139.9,115.9 141.4,112.8 142.8,109.8 144.2,106.8 145.6,103.8 146.8,100.8 148,97.9 149.2,95"></polygon><polygon points=" 148.7,95.9  159.8,100.7 149.7,94"></polygon><polygon points=" 159.8,100.7  161.5,103.8 155.7,104.1"></polygon><polygon points=" 172,89  172,139 160,145 160,89"></polygon><polygon points=" 160,87  166,82 177,91 172,95 160,89"></polygon><polygon points=" 92,129  166,129 166,133 92,133"></polygon><polygon points=" 127.1,134.2  123.3,141.5 119.2,148.3 114.8,154.6 109.9,160.6 104.7,166 99.2,171.1 93.3,175.6 87,179.6 80.4,183 73.4,185.8 72.5,184.1 78.4,179.7 83.9,175.2 89.1,170.5 94,165.5 98.5,160.3 102.6,154.8 106.5,149 110,142.8 113.2,136.3 116,129.5"></polygon><polygon points=" 115.6,130.4  127.1,134.2 116.6,128.2"></polygon><polygon points=" 127.1,134.2  129,137.3 123.2,138"></polygon><polygon points=" 136.2,131.5  140.5,137.5 144.6,143.1 148.8,148.2 153.1,153 157.4,157.2 162,161 166.6,164.4 171.4,167.3 176.4,169.8 181.5,171.9 176.4,184 170.5,180.9 165.1,177.2 159.9,173.1 155.1,168.6 150.7,163.6 146.6,158.2 142.9,152.4 139.6,146.1 136.8,139.4 134.5,132.2"></polygon><polygon points=" 176.4,184  181.5,171.9 187.8,174.6"></polygon></g></svg>