<svg version="1.1" viewBox="0 0 200 200" xmlns="http://www.w3.org/2000/svg" xmlns:cc="http://creativecommons.org/ns#" xmlns:dc="http://purl.org/dc/elements/1.1/" xmlns:rdf="http://www.w3.org/1999/02/22-rdf-syntax-ns#"><g><polygon points=" 32,21  32,117 20,117 20,15"></polygon><polygon points=" 20,117  22.4,120.6 26,123 29.6,120.6 32,117"></polygon><polygon points=" 32,117  31.5,127.7 30.7,137.7 29.6,147 28.1,155.4 26.4,163.1 24.2,169.9 21.7,176 18.7,181.2 15.4,185.4 11.6,188.6 10.3,187.3 12.2,183.3 14,178.8 15.5,173.7 16.9,167.9 18,161.3 19,154 19.6,145.9 20,137 20.1,127.4 20,117"></polygon><polygon points=" 26,21  64,21 64,25 26,25"></polygon><polygon points=" 70,23  70,170 58,170 58,23"></polygon><polygon points=" 58,21  64,16 75,25 70,29 58,23"></polygon><polygon points=" 58,170  60.4,173.6 64,176 67.6,173.6 70,170"></polygon><polygon points=" 70,170  69.8,172.5 69.4,175 68.6,177.4 67.3,179.7 65.7,181.7 63.7,183.3 61.4,184.6 59,185.4 56.5,185.8 54,186 54,174 55.2,173.9 56.1,173.7 56.7,173.5 57,173.4 57.2,173.2 57.4,173 57.5,172.7 57.7,172.1 57.9,171.2 58,170"></polygon><polygon points=" 54,180  54,174 38,174 38,177"></polygon><polygon points=" 26,64  64,64 64,68 26,68"></polygon><polygon points=" 26,109  64,109 64,113 26,113"></polygon><polygon points=" 111.7,22.7  110.1,24.7 108.4,26.7 106.6,28.7 104.7,30.8 102.6,32.9 100.5,34.9 98.2,37 95.7,39.1 93.1,41.2 90.6,43.5 89.3,42.4 91.1,39.6 92.5,36.6 93.9,33.8 95.3,31.1 96.5,28.5 97.7,26 98.7,23.6 99.7,21.3 100.5,19.1 101.2,17"></polygon><polygon points=" 100.7,17.8  111.7,22.7 101.7,16"></polygon><polygon points=" 111.7,22.7  113.4,25.9 107.6,26.1"></polygon><polygon points=" 91.3,42.9  93.5,44.4 96,45.7 98.3,47.2 100.5,48.9 102.6,50.7 104.6,52.7 106.5,54.8 108.2,57.1 109.9,59.4 111.4,61.9 100.3,66.4 99.7,64.1 99.1,61.8 98.4,59.6 97.6,57.3 96.6,55.1 95.6,52.9 94.5,50.7 93.2,48.5 91.9,46.2 90.2,44.3"></polygon><polygon points=" 111.4,61.9  111.3,66.5 108.1,69.7 103.5,69.6 100.3,66.4"></polygon><polygon points=" 143.7,22.7  142.1,24.7 140.4,26.7 138.6,28.7 136.7,30.8 134.6,32.9 132.5,34.9 130.2,37 127.7,39.1 125.1,41.2 122.6,43.5 121.3,42.4 123.1,39.6 124.5,36.6 125.9,33.8 127.3,31.1 128.5,28.5 129.7,26 130.7,23.6 131.7,21.3 132.5,19.1 133.2,17"></polygon><polygon points=" 132.7,17.8  143.7,22.7 133.7,16"></polygon><polygon points=" 143.7,22.7  145.4,25.9 139.6,26.1"></polygon><polygon points=" 123.3,42.9  125.5,44.4 128,45.7 130.3,47.2 132.5,48.9 134.6,50.7 136.6,52.7 138.5,54.8 140.2,57.1 141.9,59.4 143.4,61.9 132.3,66.4 131.7,64.1 131.1,61.8 130.4,59.6 129.6,57.3 128.6,55.1 127.6,52.9 126.5,50.7 125.2,48.5 123.9,46.2 122.2,44.3"></polygon><polygon points=" 143.4,61.9  143.3,66.5 140.1,69.7 135.5,69.6 132.3,66.4"></polygon><polygon points=" 175.7,22.7  174.1,24.7 172.4,26.7 170.6,28.7 168.7,30.8 166.6,32.9 164.5,34.9 162.2,37 159.7,39.1 157.1,41.2 154.6,43.5 153.3,42.4 155.1,39.6 156.5,36.6 157.9,33.8 159.3,31.1 160.5,28.5 161.7,26 162.7,23.6 163.7,21.3 164.5,19.1 165.2,17"></polygon><polygon points=" 164.7,17.8  175.7,22.7 165.7,16"></polygon><polygon points=" 175.7,22.7  177.4,25.9 171.6,26.1"></polygon><polygon points=" 155.3,42.9  157.5,44.4 160,45.7 162.3,47.2 164.5,48.9 166.6,50.7 168.6,52.7 170.5,54.8 172.2,57.1 173.9,59.4 175.4,61.9 164.3,66.4 163.7,64.1 163.1,61.8 162.4,59.6 161.6,57.3 160.6,55.1 159.6,52.9 158.5,50.7 157.2,48.5 155.9,46.2 154.2,44.3"></polygon><polygon points=" 175.4,61.9  175.3,66.5 172.1,69.7 167.5,69.6 164.3,66.4"></polygon><polygon points=" 101,81  101,132 89,132 89,75"></polygon><polygon points=" 89,132  91.4,135.6 95,138 98.6,135.6 101,132"></polygon><polygon points=" 101,132  100.4,140.2 99.5,147.8 98.2,155 96.4,161.6 94.2,167.6 91.6,173 88.5,177.8 84.9,181.9 80.9,185.2 76.5,187.7 75.4,186.2 78.2,182.5 80.7,178.6 82.8,174.4 84.7,169.8 86.2,164.8 87.4,159.3 88.3,153.3 88.9,146.7 89.1,139.6 89,132"></polygon><polygon points=" 95,81  167,81 167,85 95,85"></polygon><polygon points=" 173,83  173.1,101.4 173.5,118 174.2,132.6 175.2,145.3 176.6,156 178.4,164.5 180.4,170.9 182.6,174.9 184.2,176.6 185.4,177 184.5,188.9 177.9,186.7 172.8,181.9 169.3,175.5 166.8,167.5 164.8,157.9 163.3,146.6 162.2,133.4 161.5,118.4 161.1,101.6 161,83"></polygon><polygon points=" 161,81  167,76 178,85 173,88 161,93"></polygon><polygon points=" 185.4,177  189.4,179.1 190.9,183.4 188.8,187.4 184.5,188.9"></polygon><polygon points=" 185,178  187,152 185,152 179,178"></polygon><polygon points=" 95,109  167,109 167,113 95,113"></polygon><polygon points=" 95,138  168,138 168,142 95,142"></polygon><polygon points=" 137,84  137,178 125,184 125,82"></polygon><polygon points=" 137,84  140,86 135,89"></polygon></g></svg>