<svg version="1.1" viewBox="0 0 200 200" xmlns="http://www.w3.org/2000/svg" xmlns:cc="http://creativecommons.org/ns#" xmlns:dc="http://purl.org/dc/elements/1.1/" xmlns:rdf="http://www.w3.org/1999/02/22-rdf-syntax-ns#"><g><polygon points=" 12,58  71,58 71,62 12,62"></polygon><polygon points=" 71,58  51,60 61,49"></polygon><polygon points=" 48,16  48,181 36,187 36,14"></polygon><polygon points=" 48,16  51,18 46,21"></polygon><polygon points=" 45.7,61.9  43.7,71.5 41.4,80.9 38.9,90.1 36,99 32.9,107.8 29.6,116.2 25.9,124.5 21.9,132.4 17.5,140.1 12.7,147.4 11.2,146.5 14.1,138.4 17,130.3 19.8,122 22.4,113.7 24.9,105.1 27.1,96.5 29.1,87.6 30.9,78.6 32.5,69.4 33.9,60"></polygon><polygon points=" 33.7,61  45.7,61.9 34.2,58"></polygon><polygon points=" 45.7,61.9  48.3,64.4 42.9,66.5"></polygon><polygon points=" 45.3,84.6  48.2,85.9 51.3,86.9 54.2,88.2 57,89.7 59.7,91.4 62.2,93.3 64.6,95.3 66.8,97.6 68.9,99.9 70.8,102.5 60.2,108.1 59.4,105.8 58.4,103.5 57.2,101.3 55.9,99.1 54.5,96.9 52.8,94.7 51,92.5 49,90.3 46.9,88.1 44.4,86.2"></polygon><polygon points=" 70.8,102.5  71.2,107 68.4,110.6 63.8,111 60.2,108.1"></polygon><polygon points=" 83.9,15  84.6,21.5 85.1,27.7 85.3,33.4 85.3,38.6 85,43.4 84.5,47.8 83.7,51.8 82.7,55.4 81.3,58.8 79.4,61.8 70.5,53.7 71.7,52.7 73,51 74.4,48.6 75.7,45.6 76.9,41.9 78.1,37.6 79.2,32.8 80.2,27.4 81.2,21.5 82.1,15"></polygon><polygon points=" 79.4,61.8  75.3,63.7 70.9,62.2 69,58 70.5,53.7"></polygon><polygon points=" 83,26  179,26 179,30 83,30"></polygon><polygon points=" 184.6,30  183.3,32.2 182,34.6 180.5,37.1 178.9,39.7 177.2,42.5 175.4,45.4 173.4,48.4 171.3,51.6 168.9,54.8 166.8,58.3 165.1,57.6 166.5,53.6 167.4,49.8 168.4,46.1 169.3,42.7 170.2,39.4 171,36.3 171.7,33.5 172.3,30.8 172.9,28.2 173.3,25.9"></polygon><polygon points=" 173,26  179,21 190,30 185,33 173,38"></polygon><polygon points=" 75,68  185,68 185,72 75,72"></polygon><polygon points=" 185,68  161,70 173,58"></polygon><polygon points=" 135,45  135,184 123,190 123,43"></polygon><polygon points=" 135,45  138,47 133,50"></polygon><polygon points=" 99,87  99,145 87,151 87,81"></polygon><polygon points=" 93,87  166,87 166,91 93,91"></polygon><polygon points=" 100.3,97.9  102.9,99.7 105.7,101.3 108.3,103 110.7,104.7 113,106.6 115.1,108.5 117.1,110.4 118.9,112.4 120.6,114.5 122.1,116.7 111.2,121.7 110.7,119.8 110.1,117.8 109.3,115.7 108.3,113.5 107.2,111.3 105.9,109 104.5,106.6 102.9,104.2 101.3,101.6 99.1,99.3"></polygon><polygon points=" 122.1,116.7  122.3,121.3 119.2,124.7 114.6,124.8 111.2,121.7"></polygon><polygon points=" 160,100.4  158.2,103.2 156.3,106 154.2,108.7 152.1,111.4 149.8,114.1 147.4,116.7 144.9,119.2 142.2,121.7 139.4,124 136.6,126.5 135.3,125.4 137.2,122.3 138.8,119 140.4,115.9 141.9,112.8 143.4,109.8 144.7,106.8 146,103.9 147.1,101 148.1,98.1 149.1,95.3"></polygon><polygon points=" 148.7,96.2  160,100.4 149.6,94.2"></polygon><polygon points=" 160,100.4  161.8,103.5 156,104.1"></polygon><polygon points=" 172,89  172,139 160,145 160,89"></polygon><polygon points=" 160,87  166,82 177,91 172,95 160,89"></polygon><polygon points=" 93,129  166,129 166,133 93,133"></polygon><polygon points=" 127.1,134.1  123.6,141.4 119.7,148.2 115.3,154.6 110.6,160.5 105.5,166 100,171 94.2,175.6 88,179.6 81.4,183 74.4,185.8 73.5,184.1 79.4,179.7 84.9,175.2 90,170.5 94.8,165.6 99.2,160.3 103.3,154.8 107,149 110.3,142.9 113.3,136.4 116,129.6"></polygon><polygon points=" 115.6,130.5  127.1,134.1 116.5,128.3"></polygon><polygon points=" 127.1,134.1  129.2,137.1 123.4,138"></polygon><polygon points=" 137.2,131.5  141.3,137.5 145.3,143.1 149.3,148.3 153.4,153 157.7,157.3 162.2,161.1 166.7,164.4 171.5,167.3 176.4,169.8 181.5,171.9 176.4,184 170.5,180.9 165.1,177.2 160,173.1 155.2,168.6 150.9,163.6 146.9,158.2 143.3,152.4 140.2,146.1 137.5,139.4 135.5,132.2"></polygon><polygon points=" 176.4,184  181.5,171.9 187.8,174.6"></polygon></g></svg>