<svg version="1.1" viewBox="0 0 200 200" xmlns="http://www.w3.org/2000/svg" xmlns:cc="http://creativecommons.org/ns#" xmlns:dc="http://purl.org/dc/elements/1.1/" xmlns:rdf="http://www.w3.org/1999/02/22-rdf-syntax-ns#"><g><polygon points=" 13,34  69,34 69,38 13,38"></polygon><polygon points=" 69,34  45,36 57,24"></polygon><polygon points=" 45,37  45,141 33,147 33,35"></polygon><polygon points=" 45,37  48,39 43,42"></polygon><polygon points=" 14,86  67,86 67,90 14,90"></polygon><polygon points=" 67,86  47,88 57,77"></polygon><polygon points=" 11.8,149  17.1,147.3 22.5,145.5 28,143.7 33.5,141.8 39.2,139.7 45,137.6 50.9,135.5 57,133.3 63.2,131.2 69.5,129.1 70.4,130.8 64.8,134.6 59.3,138.2 53.7,141.4 48.1,144.6 42.6,147.5 37.2,150.3 31.8,153 26.5,155.5 21.2,157.9 16,160.2"></polygon><polygon points=" 16,160.2  11.8,149 9.9,149.7"></polygon><polygon points=" 16,160.2  18.9,162.3 20.6,155.3"></polygon><polygon points=" 95,23  95,66 83,72 83,17"></polygon><polygon points=" 89,23  175,23 175,27 89,27"></polygon><polygon points=" 181,25  181,65 169,71 169,25"></polygon><polygon points=" 169,23  175,18 186,27 181,31 169,25"></polygon><polygon points=" 124,26  124,58 112,64 112,24"></polygon><polygon points=" 124,26  127,28 122,31"></polygon><polygon points=" 152,26  152,58 140,64 140,24"></polygon><polygon points=" 152,26  155,28 150,31"></polygon><polygon points=" 89,59  175,59 175,63 89,63"></polygon><polygon points=" 79,79  185,79 185,83 79,83"></polygon><polygon points=" 185,79  161,81 173,69"></polygon><polygon points=" 144,84.3  139.5,93.1 134.5,101.6 129,109.6 123.2,117.3 116.8,124.7 110.1,131.6 102.9,138.1 95.2,144.2 87.1,149.7 78.5,154.7 77.4,153.2 84.8,146.7 91.8,140.1 98.4,133.3 104.6,126.4 110.4,119.2 115.7,111.8 120.7,104.1 125.2,96.1 129.3,87.9 133.1,79.4"></polygon><polygon points=" 132.7,80.3  144,84.3 133.6,78.2"></polygon><polygon points=" 144,84.3  146,87.3 140.2,88.1"></polygon><polygon points=" 138,105  138,185 126,191 126,103"></polygon><polygon points=" 138,105  141,107 136,110"></polygon><polygon points=" 141.3,114.7  146.6,116.6 151.7,118.9 156.5,121.6 161.2,124.6 165.8,127.8 170.1,131.2 174.3,134.8 178.4,138.7 182.2,142.7 186,147 176.3,154.2 173.4,149.9 170.3,145.8 167.1,141.8 163.7,137.9 160.2,134.2 156.5,130.5 152.6,126.9 148.7,123.4 144.6,119.8 140.4,116.2"></polygon><polygon points=" 186,147  187,151.4 184.7,155.4 180.3,156.4 176.3,154.2"></polygon></g></svg>