<svg version="1.1" viewBox="0 0 200 200" xmlns="http://www.w3.org/2000/svg" xmlns:cc="http://creativecommons.org/ns#" xmlns:dc="http://purl.org/dc/elements/1.1/" xmlns:rdf="http://www.w3.org/1999/02/22-rdf-syntax-ns#"><g><polygon points=" 22,52.8  23.6,59.2 24.8,65.4 25.5,71.2 26,76.8 26,82.2 25.8,87.3 25.3,92.1 24.4,96.7 23.2,101 21.7,105.1 11,99.5 12.7,96.7 14.2,93.5 15.5,89.9 16.6,85.8 17.6,81.4 18.4,76.5 19,71.3 19.5,65.6 19.8,59.5 20.2,53"></polygon><polygon points=" 21.7,105.1  18.1,108 13.6,107.6 10.7,104.1 11,99.5"></polygon><polygon points=" 70.3,54.2  68.2,56.6 65.9,59.1 63.4,61.7 60.8,64.4 57.9,67.2 54.9,70.1 51.7,73.1 48.2,76.2 44.5,79.3 40.6,82.6 39.3,81.3 42.1,77.2 44.6,73.1 47.1,69.2 49.5,65.6 51.7,62.1 53.8,58.8 55.7,55.7 57.4,52.8 59,50 60.4,47.4"></polygon><polygon points=" 59.9,48.2  70.3,54.2 60.9,46.7"></polygon><polygon points=" 70.3,54.2  71.6,57.5 65.8,57.2"></polygon><polygon points=" 46,18  46,94 34,94 34,16"></polygon><polygon points=" 46,18  49,20 44,23"></polygon><polygon points=" 34,94  36.4,97.6 40,100 43.6,97.6 46,94"></polygon><polygon points=" 46,94  45.3,106.5 44.1,118.3 42.3,129.3 39.8,139.7 36.7,149.3 33,158.1 28.6,166.1 23.6,173.2 17.9,179.4 11.6,184.6 10.3,183.3 15,177 19.2,170.2 22.8,163 26,155.1 28.7,146.6 30.8,137.5 32.4,127.7 33.5,117.2 34,105.9 34,94"></polygon><polygon points=" 40.3,120.1  44.2,123.5 48,126.8 51.4,130.2 54.5,133.7 57.4,137.3 60,140.8 62.3,144.4 64.4,148 66.3,151.7 67.8,155.4 56.3,158.8 55.6,155.6 54.7,152.2 53.5,148.8 52.1,145.2 50.4,141.6 48.6,137.8 46.4,133.9 44.1,129.8 41.7,125.6 39,121.3"></polygon><polygon points=" 67.8,155.4  67.3,159.9 63.8,162.8 59.3,162.3 56.3,158.8"></polygon><polygon points=" 84.9,14.9  85.8,21.5 86.4,27.6 86.8,33.3 86.8,38.6 86.5,43.4 86,47.8 85.1,51.9 84,55.6 82.4,59 80.3,62.1 71.8,53.6 73.1,52.6 74.5,50.9 75.9,48.6 77.2,45.6 78.5,41.9 79.6,37.7 80.6,32.9 81.5,27.5 82.4,21.5 83.1,15"></polygon><polygon points=" 80.3,62.1  76.1,63.8 71.8,62.1 70.1,57.8 71.8,53.6"></polygon><polygon points=" 84,26  179,26 179,30 84,30"></polygon><polygon points=" 184.6,30  183.3,32.2 182,34.6 180.5,37.1 178.9,39.7 177.2,42.5 175.4,45.4 173.4,48.4 171.3,51.6 168.9,54.8 166.8,58.3 165.1,57.6 166.5,53.6 167.4,49.8 168.4,46.1 169.3,42.7 170.2,39.4 171,36.3 171.7,33.5 172.3,30.8 172.9,28.2 173.3,25.9"></polygon><polygon points=" 173,26  179,21 190,30 185,33 173,38"></polygon><polygon points=" 76,68  185,68 185,72 76,72"></polygon><polygon points=" 185,68  161,70 173,58"></polygon><polygon points=" 136,45  136,184 124,190 124,43"></polygon><polygon points=" 136,45  139,47 134,50"></polygon><polygon points=" 100,87  100,145 88,151 88,81"></polygon><polygon points=" 94,87  166,87 166,91 94,91"></polygon><polygon points=" 101.3,97.9  103.9,99.7 106.7,101.3 109.3,103 111.7,104.7 114,106.6 116.1,108.5 118.1,110.4 119.9,112.4 121.6,114.5 123.1,116.7 112.2,121.7 111.7,119.8 111.1,117.8 110.3,115.7 109.3,113.5 108.2,111.3 106.9,109 105.5,106.6 103.9,104.2 102.3,101.6 100.1,99.3"></polygon><polygon points=" 123.1,116.7  123.3,121.3 120.2,124.7 115.6,124.8 112.2,121.7"></polygon><polygon points=" 160.8,100.7  158.8,103.4 156.8,106.1 154.7,108.8 152.6,111.4 150.3,114.1 148,116.6 145.5,119.2 143,121.6 140.2,124 137.7,126.5 136.2,125.4 138,122.3 139.5,119.1 140.9,115.9 142.4,112.8 143.8,109.8 145.2,106.8 146.6,103.8 147.8,100.8 149,97.9 150.2,95"></polygon><polygon points=" 149.7,95.9  160.8,100.7 150.7,94"></polygon><polygon points=" 160.8,100.7  162.5,103.8 156.7,104.1"></polygon><polygon points=" 172,89  172,139 160,145 160,89"></polygon><polygon points=" 160,87  166,82 177,91 172,95 160,89"></polygon><polygon points=" 94,129  166,129 166,133 94,133"></polygon><polygon points=" 128.1,134.1  124.6,141.4 120.7,148.2 116.3,154.6 111.6,160.5 106.5,166 101,171 95.2,175.6 89,179.6 82.4,183 75.4,185.8 74.5,184.1 80.4,179.7 85.9,175.2 91,170.5 95.8,165.6 100.2,160.3 104.3,154.8 108,149 111.3,142.9 114.3,136.4 117,129.6"></polygon><polygon points=" 116.6,130.5  128.1,134.1 117.5,128.3"></polygon><polygon points=" 128.1,134.1  130.2,137.1 124.4,138"></polygon><polygon points=" 137.2,131.5  141.4,137.5 145.6,143.1 149.7,148.3 153.9,153 158.2,157.3 162.7,161.1 167.2,164.4 171.9,167.3 176.7,169.8 181.6,171.9 176.3,184 170.6,180.8 165.3,177.2 160.4,173.1 155.7,168.6 151.4,163.6 147.4,158.2 143.8,152.4 140.5,146.1 137.7,139.4 135.5,132.2"></polygon><polygon points=" 176.3,184  181.6,171.9 187.7,174.6"></polygon></g></svg>