<svg version="1.1" viewBox="0 0 200 200" xmlns="http://www.w3.org/2000/svg" xmlns:cc="http://creativecommons.org/ns#" xmlns:dc="http://purl.org/dc/elements/1.1/" xmlns:rdf="http://www.w3.org/1999/02/22-rdf-syntax-ns#"><g><polygon points=" 37.8,29.5  36.6,38.1 35.2,46.5 33.5,54.7 31.5,62.6 29.3,70.2 26.8,77.6 24.1,84.8 21,91.6 17.6,98.2 13.8,104.3 12.1,103.6 14.1,96.7 16,89.8 17.8,82.7 19.5,75.5 21.1,68.2 22.4,60.6 23.6,52.9 24.5,44.9 25.3,36.8 25.9,28.4"></polygon><polygon points=" 25.8,29.4  37.8,29.5 26.1,26.2"></polygon><polygon points=" 37.8,29.5  40.6,31.8 35.4,34.3"></polygon><polygon points=" 26,61  88,61 88,65 26,65"></polygon><polygon points=" 88,61  64,63 76,51"></polygon><polygon points=" 60,15  60,183 48,189 48,13"></polygon><polygon points=" 60,15  63,17 58,20"></polygon><polygon points=" 13.5,126  19.6,123.8 25.9,121.5 32.5,119.1 39.3,116.8 46.4,114.4 53.7,112 61.3,109.7 69.1,107.3 77.2,105.1 85.6,103.1 86.3,104.8 78.5,108.7 71,112.4 63.6,115.8 56.4,119.1 49.5,122.3 42.8,125.4 36.3,128.4 30,131.4 24,134.2 18.3,137.1"></polygon><polygon points=" 18.3,137.1  13.5,126 11.6,126.8"></polygon><polygon points=" 18.3,137.1  21.3,139 22.6,131.9"></polygon><polygon points=" 121.6,34.2  119.5,41.3 117.1,48.2 114.3,54.9 111.1,61.3 107.6,67.4 103.8,73.3 99.6,78.9 95,84.2 90,89.1 84.6,93.6 83.3,92.3 87.1,86.6 90.8,80.9 94.2,75.2 97.3,69.4 100.1,63.5 102.7,57.4 104.9,51.2 106.9,44.8 108.5,38.3 109.9,31.6"></polygon><polygon points=" 109.7,32.6  121.6,34.2 110.3,29.8"></polygon><polygon points=" 121.6,34.2  124.1,36.8 118.6,38.7"></polygon><polygon points=" 119,22  150,22 150,26 119,26"></polygon><polygon points=" 156,24.2  157.2,31.8 158.7,39 160.6,45.6 162.9,51.7 165.5,57.4 168.6,62.6 172,67.4 175.7,71.7 179.8,75.5 184.4,79 177.5,88.9 172.1,84.7 167.1,80 162.5,74.8 158.5,69.1 154.9,63 151.8,56.4 149.2,49.4 147,41.9 145.4,34 144.1,25.7"></polygon><polygon points=" 144.2,26.6  156,24.2 143.9,23.6"></polygon><polygon points=" 156,24.2  159.2,25.9 154.6,29.4"></polygon><polygon points=" 98,84  167,84 167,88 98,88"></polygon><polygon points=" 167,84  143,86 155,74"></polygon><polygon points=" 126.4,88.7  111.6,137.1 98.4,139.3 115.5,83.2"></polygon><polygon points=" 126.4,88.7  128.7,91.4 123.3,92.8"></polygon><polygon points=" 110,120  162,120 162,124 110,124"></polygon><polygon points=" 167.9,122.8  166.7,131.3 165.4,139.1 164.1,146.2 162.8,152.6 161.5,158.4 160.1,163.4 158.6,167.8 157,171.6 155.3,174.9 153.2,177.7 144.4,169.5 145.1,168.6 146.2,166.6 147.3,163.7 148.6,159.9 149.8,155.4 151.1,150.1 152.4,144 153.6,137.1 154.8,129.5 156,121.1"></polygon><polygon points=" 156,120  162,115 173,124 168,127 156,132"></polygon><polygon points=" 153.2,177.7  151.4,179.4 149.6,181 147.7,182.4 145.7,183.6 143.5,184.6 141.3,185.5 139.1,186.1 136.7,186.6 134.4,186.9 132,187 132,175 133.5,174.9 134.9,174.7 136.3,174.5 137.5,174.1 138.8,173.6 139.9,173 141.1,172.4 142.2,171.5 143.3,170.6 144.4,169.5"></polygon><polygon points=" 132,181  132,175 116,175 116,178"></polygon></g></svg>