<svg version="1.1" viewBox="0 0 200 200" xmlns="http://www.w3.org/2000/svg" xmlns:cc="http://creativecommons.org/ns#" xmlns:dc="http://purl.org/dc/elements/1.1/" xmlns:rdf="http://www.w3.org/1999/02/22-rdf-syntax-ns#"><g><polygon points=" 18.2,28.4  21.1,32.5 23.9,36.4 26.4,40.3 28.6,44.2 30.7,48 32.5,51.7 34.2,55.3 35.7,58.9 37.1,62.4 38.2,65.8 26.5,68.3 26.1,65.1 25.6,61.8 24.9,58.3 24.1,54.7 23.2,50.9 22.1,46.9 20.9,42.8 19.5,38.5 18.2,33.9 16.6,29.3"></polygon><polygon points=" 38.2,65.8  37.3,70.3 33.6,72.9 29.1,72 26.5,68.3"></polygon><polygon points=" 83.2,32  81.5,35.6 79.6,39.4 77.6,43.3 75.5,47.3 73.2,51.4 70.7,55.6 68.1,60 65.2,64.4 62.1,68.8 58.7,73.4 57.2,72.5 58.9,67.2 60.6,62.1 62.3,57.2 64,52.5 65.6,47.9 67.1,43.6 68.5,39.4 69.7,35.4 70.9,31.5 72,27.8"></polygon><polygon points=" 71.6,28.8  83.2,32 72.5,26.4"></polygon><polygon points=" 83.2,32  85.4,34.9 79.6,36"></polygon><polygon points=" 11,84  86,84 86,88 11,88"></polygon><polygon points=" 86,84  62,86 74,74"></polygon><polygon points=" 55,15  55,181 43,187 43,13"></polygon><polygon points=" 55,15  58,17 53,20"></polygon><polygon points=" 50.7,88  48.4,97.6 45.8,106.9 42.8,115.7 39.5,124.2 35.8,132.4 31.8,140.1 27.4,147.4 22.6,154.3 17.3,160.7 11.7,166.5 10.2,165.4 14.2,158.5 18,151.4 21.6,144.2 25,136.8 28,129 30.8,121 33.2,112.7 35.4,104.1 37.3,95.1 38.9,85.8"></polygon><polygon points=" 38.7,86.8  50.7,88 39.2,83.9"></polygon><polygon points=" 50.7,88  53.3,90.5 47.8,92.6"></polygon><polygon points=" 50.3,98.8  54.5,101.2 58.6,103.5 62.4,106 66,108.7 69.4,111.4 72.6,114.2 75.6,117.1 78.5,120.1 81.1,123.1 83.5,126.3 73.3,132.5 71.7,129.5 70,126.4 68.1,123.3 65.9,120.2 63.6,117 61.1,113.8 58.4,110.5 55.5,107.2 52.5,103.7 49.2,100.3"></polygon><polygon points=" 83.5,126.3  84.2,130.8 81.5,134.5 77,135.2 73.3,132.5"></polygon><polygon points=" 104,23  104,182 92,188 92,17"></polygon><polygon points=" 98,23  175,23 175,27 98,27"></polygon><polygon points=" 181,25  181,181 169,187 169,25"></polygon><polygon points=" 169,23  175,18 186,27 181,31 169,25"></polygon><polygon points=" 98,175  175,175 175,179 98,179"></polygon><polygon points=" 106,74  167,74 167,78 106,78"></polygon><polygon points=" 167,74  155,76 161,68"></polygon><polygon points=" 155,40  155,150 143,150 143,38"></polygon><polygon points=" 155,40  158,42 153,45"></polygon><polygon points=" 143,150  145.4,153.6 149,156 152.6,153.6 155,150"></polygon><polygon points=" 155,150  154.8,152.5 154.4,155 153.6,157.4 152.3,159.7 150.7,161.7 148.7,163.3 146.4,164.6 144,165.4 141.5,165.8 139,166 139,154 140.2,153.9 141.1,153.7 141.7,153.5 142,153.4 142.2,153.2 142.4,153 142.5,152.7 142.7,152.1 142.9,151.2 143,150"></polygon><polygon points=" 139,160  139,154 127,154 127,157"></polygon><polygon points=" 119.3,91.3  121.2,93.5 123.4,95.7 125.4,98.1 127.3,100.6 129,103.3 130.5,106 131.9,108.9 133.2,111.8 134.4,114.9 135.4,118 123.5,120 123.4,117.2 123.2,114.4 122.9,111.6 122.5,108.8 122,106.1 121.3,103.3 120.6,100.6 119.9,97.8 119,94.9 117.8,92.3"></polygon><polygon points=" 135.4,118  134.3,122.4 130.4,124.9 126,123.8 123.5,120"></polygon></g></svg>