<svg version="1.1" viewBox="0 0 200 200" xmlns="http://www.w3.org/2000/svg" xmlns:cc="http://creativecommons.org/ns#" xmlns:dc="http://purl.org/dc/elements/1.1/" xmlns:rdf="http://www.w3.org/1999/02/22-rdf-syntax-ns#"><g><polygon points=" 28,52  28,123 16,129 16,46"></polygon><polygon points=" 22,52  74,52 74,56 22,56"></polygon><polygon points=" 80,54  80,111 68,117 68,54"></polygon><polygon points=" 68,52  74,47 85,56 80,60 68,54"></polygon><polygon points=" 22,107  74,107 74,111 22,111"></polygon><polygon points=" 54,15  54,154 42,160 42,13"></polygon><polygon points=" 54,15  57,17 52,20"></polygon><polygon points=" 12.9,166  19.1,164.1 25.2,162.2 31.2,160.2 37.1,158.1 42.9,156 48.7,153.8 54.4,151.6 60.1,149.4 65.8,147.2 71.5,145.2 72.4,146.7 67.6,150.6 62.6,154.2 57.4,157.5 52,160.7 46.4,163.7 40.8,166.7 35,169.5 29,172.2 23,174.8 16.8,177.3"></polygon><polygon points=" 16.8,177.3  12.9,166 11.1,166.6"></polygon><polygon points=" 16.8,177.3  19.7,179.5 21.5,172.5"></polygon><polygon points=" 62.3,124.1  65.9,127.4 69.3,130.8 72.3,134.4 74.9,138.3 77.3,142.3 79.4,146.5 81.2,150.8 82.7,155.2 83.8,159.8 84.7,164.5 72.7,165.4 72.6,161.4 72.3,157.4 71.7,153.4 70.9,149.5 69.8,145.5 68.5,141.5 66.9,137.6 65.1,133.5 63.2,129.4 60.9,125.3"></polygon><polygon points=" 84.7,164.5  83.2,168.8 79.2,170.9 74.9,169.5 72.7,165.4"></polygon><polygon points=" 115.7,22.7  114.1,24.7 112.4,26.7 110.6,28.7 108.7,30.8 106.6,32.9 104.5,34.9 102.2,37 99.7,39.1 97.1,41.2 94.6,43.5 93.3,42.4 95.1,39.6 96.5,36.6 97.9,33.8 99.3,31.1 100.5,28.5 101.7,26 102.7,23.6 103.7,21.3 104.5,19.1 105.2,17"></polygon><polygon points=" 104.7,17.8  115.7,22.7 105.7,16"></polygon><polygon points=" 115.7,22.7  117.4,25.9 111.6,26.1"></polygon><polygon points=" 95.3,42.9  97.5,44.4 100,45.7 102.3,47.2 104.5,48.9 106.6,50.7 108.6,52.7 110.5,54.8 112.2,57.1 113.9,59.4 115.4,61.9 104.3,66.4 103.7,64.1 103.1,61.8 102.4,59.6 101.6,57.3 100.6,55.1 99.6,52.9 98.5,50.7 97.2,48.5 95.9,46.2 94.2,44.3"></polygon><polygon points=" 115.4,61.9  115.3,66.5 112.1,69.7 107.5,69.6 104.3,66.4"></polygon><polygon points=" 145.7,22.7  144.2,24.7 142.5,26.6 140.8,28.7 138.9,30.7 136.9,32.8 134.9,34.8 132.7,37 130.4,39.1 127.9,41.1 125.7,43.5 124.2,42.4 125.9,39.6 127.1,36.7 128.4,33.9 129.6,31.2 130.7,28.6 131.8,26.1 132.8,23.7 133.7,21.3 134.5,19.1 135.2,17"></polygon><polygon points=" 134.7,17.8  145.7,22.7 135.7,16"></polygon><polygon points=" 145.7,22.7  147.4,25.9 141.6,26.1"></polygon><polygon points=" 126.3,43  128.3,44.5 130.7,45.8 132.8,47.3 134.9,49 136.9,50.8 138.8,52.8 140.6,54.9 142.3,57.1 143.9,59.5 145.4,61.9 134.3,66.4 133.7,64 133.1,61.7 132.4,59.5 131.7,57.2 130.8,55 129.9,52.8 128.9,50.6 127.8,48.4 126.7,46.2 125.1,44.3"></polygon><polygon points=" 145.4,61.9  145.3,66.5 142.1,69.7 137.5,69.6 134.3,66.4"></polygon><polygon points=" 176.7,22.7  175.2,24.7 173.5,26.6 171.8,28.7 169.9,30.7 167.9,32.8 165.9,34.8 163.7,37 161.4,39.1 158.9,41.1 156.7,43.5 155.2,42.4 156.9,39.6 158.1,36.7 159.4,33.9 160.6,31.2 161.7,28.6 162.8,26.1 163.8,23.7 164.7,21.3 165.5,19.1 166.2,17"></polygon><polygon points=" 165.7,17.8  176.7,22.7 166.7,16"></polygon><polygon points=" 176.7,22.7  178.4,25.9 172.6,26.1"></polygon><polygon points=" 157.3,43  159.3,44.5 161.7,45.8 163.8,47.3 165.9,49 167.9,50.8 169.8,52.8 171.6,54.9 173.3,57.1 174.9,59.5 176.4,61.9 165.3,66.4 164.7,64 164.1,61.7 163.4,59.5 162.7,57.2 161.8,55 160.9,52.8 159.9,50.6 158.8,48.4 157.7,46.2 156.1,44.3"></polygon><polygon points=" 176.4,61.9  176.3,66.5 173.1,69.7 168.5,69.6 165.3,66.4"></polygon><polygon points=" 105,81  105,132 93,132 93,75"></polygon><polygon points=" 93,132  95.4,135.6 99,138 102.6,135.6 105,132"></polygon><polygon points=" 105,132  104.5,140.1 103.6,147.8 102.3,154.9 100.6,161.5 98.5,167.5 95.9,172.9 93,177.7 89.6,181.9 85.7,185.2 81.5,187.7 80.4,186.2 83,182.6 85.3,178.7 87.3,174.5 89,169.9 90.4,164.9 91.5,159.4 92.4,153.3 92.9,146.7 93.1,139.6 93,132"></polygon><polygon points=" 99,81  168,81 168,85 99,85"></polygon><polygon points=" 174,83  174,101.4 174.4,118 175,132.7 175.9,145.4 177.1,156.1 178.8,164.6 180.7,171 182.7,175 184.3,176.6 185.4,177 184.5,188.9 177.8,186.7 172.9,181.9 169.5,175.4 167.1,167.4 165.3,157.8 163.9,146.5 163,133.4 162.4,118.4 162,101.6 162,83"></polygon><polygon points=" 162,81  168,76 179,85 174,88 162,93"></polygon><polygon points=" 185.4,177  189.4,179.1 190.9,183.4 188.8,187.4 184.5,188.9"></polygon><polygon points=" 185,178  187,152 185,152 179,178"></polygon><polygon points=" 99,109  168,109 168,113 99,113"></polygon><polygon points=" 99,138  168,138 168,142 99,142"></polygon><polygon points=" 140,84  140,178 128,184 128,82"></polygon><polygon points=" 140,84  143,86 138,89"></polygon></g></svg>