<svg version="1.1" viewBox="0 0 200 200" xmlns="http://www.w3.org/2000/svg" xmlns:cc="http://creativecommons.org/ns#" xmlns:dc="http://purl.org/dc/elements/1.1/" xmlns:rdf="http://www.w3.org/1999/02/22-rdf-syntax-ns#"><g><polygon points=" 97.1,20.2  94.2,22.1 91.1,24.1 87.7,26 84.2,28 80.5,30 76.6,32 72.4,34 68,35.9 63.3,37.8 58.4,39.7 57.5,38.2 61.6,35 65.5,31.8 69.2,28.8 72.7,26 76,23.2 79.1,20.6 82,18.1 84.7,15.6 87.1,13.3 89.3,11"></polygon><polygon points=" 88.5,11.7  97.1,20.2 89.5,10.9"></polygon><polygon points=" 97.1,20.2  97.5,23.8 92,21.9"></polygon><polygon points=" 28.8,33.9  39.4,34 50.4,34.1 61.8,34.1 73.6,34.2 85.8,34.2 98.4,34.2 111.4,34.3 124.8,34.4 138.7,34.6 152.9,35.1 153,36.8 138.8,38.4 125.1,39.8 111.7,40.9 98.7,41.8 86.1,42.7 73.9,43.5 62.1,44.2 50.7,44.8 39.7,45.4 29.1,45.9"></polygon><polygon points=" 29.1,45.9  28.8,33.9 26.8,34"></polygon><polygon points=" 29.1,45.9  31.1,48.9 35,42.8"></polygon><polygon points=" 121.2,20.4  127.1,21.3 132.8,22.4 138.2,23.8 143.3,25.3 148.2,27 152.7,28.8 157,30.8 161.1,32.9 164.9,35.1 168.4,37.4 160.8,46.7 158.2,44.3 155.3,41.8 152,39.4 148.4,37 144.6,34.6 140.4,32.2 135.9,29.8 131.1,27.3 126,24.8 120.6,22.1"></polygon><polygon points=" 168.4,37.4  170.5,41.5 169.3,45.9 165.2,48 160.8,46.7"></polygon><polygon points=" 59.7,49.8  57.6,52.7 55.4,55.6 53.2,58.5 50.8,61.4 48.4,64.3 45.9,67.2 43.2,70.1 40.5,72.9 37.5,75.6 34.7,78.5 33.2,77.4 35.1,73.9 36.8,70.3 38.4,66.8 40.1,63.4 41.8,60 43.4,56.7 44.9,53.4 46.4,50.2 47.9,47 49.2,43.9"></polygon><polygon points=" 48.7,44.8  59.7,49.8 49.8,42.9"></polygon><polygon points=" 59.7,49.8  61.3,53 55.5,53.1"></polygon><polygon points=" 18.3,73.9  23.8,73.6 29.4,73.3 35.1,72.9 40.9,72.6 46.9,72.2 53,71.9 59.2,71.5 65.6,71.2 72.1,71.1 78.8,71.1 79.1,72.8 72.7,74.8 66.4,76.5 60.1,78 54,79.4 48,80.6 42.1,81.8 36.3,82.9 30.6,83.9 25,84.9 19.6,85.8"></polygon><polygon points=" 19.6,85.8  18.3,73.9 16.3,74.1"></polygon><polygon points=" 19.6,85.8  21.9,88.6 25.2,82.2"></polygon><polygon points=" 59.2,58.6  62.8,60 66.3,61.1 69.6,62.3 72.7,63.7 75.6,65.2 78.3,66.8 80.8,68.4 83.1,70.2 85.3,72.1 87.3,74.1 77.3,80.8 76.5,79 75.5,77.2 74.2,75.2 72.7,73.2 70.9,71.2 68.9,69.1 66.7,66.9 64.2,64.6 61.5,62.3 58.4,60.2"></polygon><polygon points=" 87.3,74.1  88.1,78.6 85.6,82.4 81.1,83.3 77.3,80.8"></polygon><polygon points=" 150.7,49.8  148.6,52.7 146.4,55.6 144.2,58.5 141.8,61.4 139.4,64.3 136.9,67.2 134.2,70.1 131.5,72.9 128.5,75.6 125.7,78.5 124.2,77.4 126.1,73.9 127.8,70.3 129.4,66.8 131.1,63.4 132.8,60 134.4,56.7 135.9,53.4 137.4,50.2 138.9,47 140.2,43.9"></polygon><polygon points=" 139.7,44.8  150.7,49.8 140.8,42.9"></polygon><polygon points=" 150.7,49.8  152.3,53 146.5,53.1"></polygon><polygon points=" 110.4,73.9  116.8,73.6 123.2,73.3 129.6,73.1 136,72.9 142.3,72.7 148.6,72.6 154.9,72.5 161.3,72.5 167.6,72.7 173.9,73.1 174,74.8 167.9,76.4 161.8,77.8 155.6,79 149.3,80.1 143.1,81.2 136.8,82.1 130.5,83.1 124.2,84 117.9,84.9 111.5,85.8"></polygon><polygon points=" 111.5,85.8  110.4,73.9 108.4,74.1"></polygon><polygon points=" 111.5,85.8  113.8,88.6 117.2,82.3"></polygon><polygon points=" 150.2,58.6  154.2,60.1 158.1,61.3 161.8,62.8 165.2,64.3 168.4,65.8 171.5,67.5 174.3,69.2 176.9,71 179.4,72.8 181.6,74.8 172.4,82.5 171.2,80.6 169.8,78.6 168.1,76.5 166.1,74.3 164,72.1 161.5,69.9 158.9,67.5 156,65.1 152.9,62.5 149.4,60.2"></polygon><polygon points=" 181.6,74.8  182.9,79.2 180.9,83.3 176.5,84.6 172.4,82.5"></polygon><polygon points=" 30.9,85.9  31.6,91.6 32.1,96.9 32.2,101.9 31.9,106.6 31.1,111.1 30,115.2 28.4,119 26.3,122.6 23.7,125.7 20.7,128.4 14.3,118.3 16.3,117.2 18.3,115.8 20.1,113.9 21.9,111.5 23.5,108.5 25,105.1 26.3,101.1 27.5,96.5 28.5,91.5 29.1,86"></polygon><polygon points=" 20.7,128.4  16.2,129.1 12.4,126.5 11.7,122 14.3,118.3"></polygon><polygon points=" 30,96  178,96 178,100 30,100"></polygon><polygon points=" 182.9,101.3  181.3,103 179.5,104.9 177.5,106.9 175.3,109 173,111.3 170.5,113.7 167.8,116.2 164.9,118.8 161.7,121.5 158.6,124.5 157.3,123.4 159.6,119.8 161.6,116.1 163.4,112.7 165.2,109.6 166.9,106.6 168.4,103.8 169.8,101.2 171,98.8 172.1,96.6 173,94.6"></polygon><polygon points=" 172,96  178,91 189,100 184,103 172,108"></polygon><polygon points=" 67,113  67,177 55,183 55,107"></polygon><polygon points=" 61,113  139,113 139,117 61,117"></polygon><polygon points=" 145,115  145,177 133,183 133,115"></polygon><polygon points=" 133,113  139,108 150,117 145,121 133,115"></polygon><polygon points=" 61,134  139,134 139,138 61,138"></polygon><polygon points=" 61,155  139,155 139,159 61,159"></polygon><polygon points=" 17,178  183,178 183,182 17,182"></polygon><polygon points=" 183,178  159,180 171,168"></polygon></g></svg>