<svg version="1.1" viewBox="0 0 200 200" xmlns="http://www.w3.org/2000/svg" xmlns:cc="http://creativecommons.org/ns#" xmlns:dc="http://purl.org/dc/elements/1.1/" xmlns:rdf="http://www.w3.org/1999/02/22-rdf-syntax-ns#"><g><polygon points=" 103,20.2  99.4,22.7 95.7,25.3 91.8,27.9 87.8,30.5 83.6,33.2 79.2,36 74.6,38.7 69.8,41.5 64.8,44.1 59.5,46.7 58.4,45.2 62.6,41 66.7,37.1 70.7,33.4 74.6,29.9 78.5,26.5 82.1,23.2 85.7,20 89,16.9 92.3,13.9 95.4,11"></polygon><polygon points=" 94.6,11.6  103,20.2 95.5,10.9"></polygon><polygon points=" 103,20.2  103.4,23.8 97.9,21.9"></polygon><polygon points=" 36.2,33.4  41.4,34.5 46.4,35.8 51.2,37.4 55.8,39.3 60.1,41.5 64.1,43.9 68,46.6 71.6,49.5 74.9,52.6 78,56 68.3,63.1 66.3,60 64,57 61.4,54 58.6,51.1 55.4,48.3 52,45.6 48.3,43 44.4,40.4 40.1,37.7 35.6,35.1"></polygon><polygon points=" 78,56  79,60.4 76.7,64.4 72.3,65.4 68.3,63.1"></polygon><polygon points=" 148.2,29.1  140.8,35.2 133.1,41.2 125.2,47.2 117.1,53.1 108.8,59 100.3,64.8 91.5,70.5 82.4,76.1 73.1,81.5 63.4,86.7 62.5,85.2 71,78.4 79.4,71.7 87.7,65.2 95.8,58.7 103.7,52.2 111.4,45.8 118.9,39.4 126.2,33 133.3,26.6 140.2,20.1"></polygon><polygon points=" 139.5,20.8  148.2,29.1 140.4,20"></polygon><polygon points=" 148.2,29.1  148.7,32.7 143.1,30.9"></polygon><polygon points=" 25.7,80.9  39.1,80.6 52.7,80.4 66.3,80.1 80,79.9 93.8,79.7 107.6,79.6 121.6,79.5 135.6,79.5 149.7,79.7 163.9,80.1 164,81.8 149.9,83.4 135.8,84.8 121.9,86 108,87.1 94.1,88.2 80.4,89.2 66.7,90.1 53.1,91.1 39.6,92 26.2,92.9"></polygon><polygon points=" 26.2,92.9  25.7,80.9 23.7,81"></polygon><polygon points=" 26.2,92.9  28.3,95.8 32.1,89.6"></polygon><polygon points=" 134.2,57.6  140.2,59.5 145.7,61.7 150.8,64.1 155.6,66.8 160,69.6 164,72.7 167.8,75.8 171.1,79.2 174.1,82.7 176.8,86.4 166.2,92.2 164.7,89.1 162.8,85.9 160.4,82.7 157.7,79.4 154.6,76.2 151.1,72.9 147.3,69.6 143,66.2 138.4,62.8 133.5,59.2"></polygon><polygon points=" 176.8,86.4  177.2,91 174.4,94.6 169.8,95 166.2,92.2"></polygon><polygon points=" 98,99.3  93.5,107.6 88.4,115.4 82.7,122.8 76.4,129.7 69.5,136 62,141.9 54,147.2 45.3,152.1 36.1,156.2 26.3,159.8 25.6,158.1 34.4,152.9 42.6,147.4 50.2,141.8 57.3,136 63.7,129.8 69.5,123.4 74.8,116.6 79.4,109.5 83.5,102.1 87.1,94.4"></polygon><polygon points=" 86.7,95.3  98,99.3 87.6,93.2"></polygon><polygon points=" 98,99.3  99.9,102.4 94.1,103.1"></polygon><polygon points=" 82,113  142,113 142,117 82,117"></polygon><polygon points=" 146.9,118.4  137.8,129.8 127.8,140.2 116.8,149.7 104.9,158.1 92,165.6 78.3,172.2 63.6,177.7 48,182.2 31.5,185.6 14.1,187.8 13.8,186.1 30.7,181.9 46.5,177 61.3,171.5 75.1,165.3 87.9,158.3 99.7,150.5 110.4,141.9 120.3,132.6 129.1,122.5 137,111.5"></polygon><polygon points=" 136,113  142,108 153,117 148,120 136,125"></polygon><polygon points=" 31.7,126.3  33.9,125.2 36.3,123.9 38.7,122.2 41.3,120.3 43.9,118 46.6,115.5 49.4,112.6 52.2,109.6 55.3,106.2 58.2,102.5 59.7,103.4 57.8,107.8 56,112.1 54.1,116 52.1,119.7 49.9,123.1 47.7,126.3 45.4,129.2 43,131.9 40.5,134.3 37.9,136.5"></polygon><polygon points=" 37.9,136.5  31.7,126.3 30,127.4"></polygon><polygon points=" 37.9,136.5  41.2,138 41.5,130.8"></polygon><polygon points=" 58.2,103.4  66.9,115.1 76,125.7 85.7,135.3 96,143.7 107.1,151 118.9,157.2 131.4,162.4 144.7,166.4 158.8,169.4 173.7,171.4 172.2,184.5 156.4,181.7 141.4,177.8 127.4,172.6 114.2,166.3 102.1,158.8 90.8,150.2 80.6,140.4 71.5,129.5 63.4,117.5 56.7,104.3"></polygon><polygon points=" 172.2,184.5  173.7,171.4 184.1,172.6"></polygon></g></svg>