<svg version="1.1" viewBox="0 0 200 200" xmlns="http://www.w3.org/2000/svg" xmlns:cc="http://creativecommons.org/ns#" xmlns:dc="http://purl.org/dc/elements/1.1/" xmlns:rdf="http://www.w3.org/1999/02/22-rdf-syntax-ns#"><g><polygon points=" 15,35  184,35 184,39 15,39"></polygon><polygon points=" 184,35  160,37 172,25"></polygon><polygon points=" 105,14  105,63 93,69 93,12"></polygon><polygon points=" 105,14  108,16 103,19"></polygon><polygon points=" 27,64  171,64 171,68 27,68"></polygon><polygon points=" 171,64  151,66 161,55"></polygon><polygon points=" 55,82  55,156 43,162 43,76"></polygon><polygon points=" 49,82  149,82 149,86 49,86"></polygon><polygon points=" 155,84  155,149 143,155 143,84"></polygon><polygon points=" 143,82  149,77 160,86 155,90 143,84"></polygon><polygon points=" 49,103  149,103 149,107 49,107"></polygon><polygon points=" 49,124  149,124 149,128 49,128"></polygon><polygon points=" 49,145  149,145 149,149 49,149"></polygon><polygon points=" 83.3,164.6  78.6,167 73.5,169.3 67.9,171.6 61.9,174 55.3,176.3 48.3,178.5 40.8,180.8 32.8,182.9 24.3,185 15.2,186.8 14.7,185.1 23.1,181.4 31.1,177.9 38.6,174.6 45.6,171.4 52.1,168.4 58.2,165.4 63.6,162.6 68.6,159.7 73,157 76.9,154.4"></polygon><polygon points=" 76.1,154.9  83.3,164.6 84.5,163.8"></polygon><polygon points=" 84.5,163.8  84.7,167.2 79,164.9"></polygon><polygon points=" 110.1,158.2  119,158.9 127.4,159.9 135.2,161.2 142.5,162.8 149.3,164.5 155.5,166.5 161.3,168.6 166.5,171 171.3,173.6 175.5,176.4 167.8,185.6 164.8,183 161.2,180.3 156.9,177.7 152,175.1 146.5,172.5 140.3,170 133.6,167.6 126.2,165.1 118.3,162.6 109.8,160"></polygon><polygon points=" 175.5,176.4  177.6,180.5 176.2,184.9 172.2,186.9 167.8,185.6"></polygon></g></svg>