<svg version="1.1" viewBox="0 0 200 200" xmlns="http://www.w3.org/2000/svg" xmlns:cc="http://creativecommons.org/ns#" xmlns:dc="http://purl.org/dc/elements/1.1/" xmlns:rdf="http://www.w3.org/1999/02/22-rdf-syntax-ns#"><g><polygon points=" 14,35  186,35 186,39 14,39"></polygon><polygon points=" 186,35  162,37 174,25"></polygon><polygon points=" 107.9,13.4  104.2,63.4 91.7,68.5 96,10.5"></polygon><polygon points=" 107.9,13.4  110.7,15.6 105.6,17.5"></polygon><polygon points=" 54,64  54,110 42,116 42,58"></polygon><polygon points=" 48,64  152,64 152,68 48,68"></polygon><polygon points=" 158,66  158,107 146,113 146,66"></polygon><polygon points=" 146,64  152,59 163,68 158,72 146,66"></polygon><polygon points=" 48,99  152,99 152,103 48,103"></polygon><polygon points=" 14,127  185,127 185,131 14,131"></polygon><polygon points=" 185,127  161,129 173,117"></polygon><polygon points=" 105,108  105,182 93,188 93,106"></polygon><polygon points=" 105,108  108,110 103,113"></polygon></g></svg>