<svg version="1.1" viewBox="0 0 200 200" xmlns="http://www.w3.org/2000/svg" xmlns:cc="http://creativecommons.org/ns#" xmlns:dc="http://purl.org/dc/elements/1.1/" xmlns:rdf="http://www.w3.org/1999/02/22-rdf-syntax-ns#"><g><polygon points=" 82.2,11.4  85.6,12.3 89.1,12.9 92.3,13.7 95.3,14.6 98.1,15.8 100.8,17.1 103.3,18.6 105.6,20.3 107.7,22.2 109.6,24.3 99.3,30.4 98.7,28.8 98,27.2 96.9,25.5 95.6,23.8 94,22 92.1,20.2 89.9,18.4 87.5,16.5 84.8,14.6 81.6,13.1"></polygon><polygon points=" 109.6,24.3  110.2,28.9 107.5,32.5 102.9,33.1 99.3,30.4"></polygon><polygon points=" 30.9,26.9  31.5,31.8 32,36.4 32.1,40.8 31.7,44.9 31,48.8 29.8,52.4 28.2,55.8 26.1,58.9 23.4,61.7 20.3,64 14.9,53.2 16.9,52.5 18.7,51.5 20.5,50.1 22.2,48.3 23.8,46 25.2,43.1 26.5,39.8 27.6,36 28.6,31.7 29.1,27"></polygon><polygon points=" 20.3,64  15.8,64.2 12.3,61.3 12,56.7 14.9,53.2"></polygon><polygon points=" 31,35  175,35 175,39 31,39"></polygon><polygon points=" 180.3,39.6  179.4,40.5 178.3,41.4 177.2,42.6 175.8,44 174.3,45.5 172.7,47.3 170.9,49.2 168.9,51.3 166.7,53.6 164.7,56.4 163.2,55.5 164.7,52.5 165.7,49.4 166.6,46.7 167.4,44.2 168.1,41.9 168.6,39.9 169.1,38.1 169.4,36.5 169.6,35.3 169.6,34.3"></polygon><polygon points=" 169,35  175,30 186,39 181,42 169,47"></polygon><polygon points=" 35,64  161,64 161,68 35,68"></polygon><polygon points=" 161,64  137,66 149,54"></polygon><polygon points=" 104,43  104,113 92,119 92,41"></polygon><polygon points=" 104,43  107,45 102,48"></polygon><polygon points=" 41,89  155,89 155,93 41,93"></polygon><polygon points=" 155,89  131,91 143,79"></polygon><polygon points=" 21,114  176,114 176,118 21,118"></polygon><polygon points=" 176,114  152,116 164,104"></polygon><polygon points=" 41.9,128.9  42.8,135.2 43.2,141.1 43.2,146.8 42.7,152.1 41.7,157.1 40.3,161.8 38.5,166.2 36.1,170.2 33.3,173.8 29.9,177.1 22.9,167.3 25.4,165.6 27.8,163.5 30,161 32,158 33.9,154.4 35.5,150.4 37,145.8 38.2,140.7 39.3,135.1 40.1,129"></polygon><polygon points=" 29.9,177.1  25.4,178.1 21.5,175.7 20.5,171.2 22.9,167.3"></polygon><polygon points=" 74,130  74,168 62,168 62,128"></polygon><polygon points=" 74,130  77,132 72,135"></polygon><polygon points=" 62,168  64.4,171.6 68,174 71.6,171.6 74,168"></polygon><polygon points=" 74,168  74,169.2 74.2,170.1 74.4,170.7 74.5,171 74.7,171.2 74.9,171.4 75.2,171.5 75.8,171.7 76.7,171.9 78,172 78,184 75.4,183.8 72.9,183.4 70.5,182.6 68.2,181.3 66.2,179.7 64.6,177.7 63.3,175.4 62.5,173 62.1,170.5 62,168"></polygon><polygon points=" 78,172  82.2,173.8 84,178 82.2,182.2 78,184"></polygon><polygon points=" 78,172  141,172 141,184 78,184"></polygon><polygon points=" 141,172  144.6,174.4 147,178 144.6,181.6 141,184"></polygon><polygon points=" 141,172  143,147 141,147 135,172"></polygon><polygon points=" 88.2,122.6  91.9,123.9 95.6,125.3 99.1,127 102.4,129.1 105.6,131.4 108.6,133.9 111.5,136.7 114.2,139.8 116.7,143.1 119,146.6 108.2,152 106.9,148.7 105.4,145.6 103.8,142.6 102,139.7 100,136.9 97.9,134.2 95.6,131.6 93.1,129 90.4,126.5 87.4,124.2"></polygon><polygon points=" 119,146.6  119.2,151.1 116.3,154.6 111.7,154.9 108.2,152"></polygon><polygon points=" 143.3,129.8  147.9,132.1 152.3,134.7 156.3,137.6 159.9,140.7 163.3,144.2 166.3,147.8 169,151.7 171.4,155.8 173.4,160.1 175,164.6 163.4,167.5 162.6,163.7 161.6,160 160.3,156.3 158.6,152.7 156.7,149.1 154.4,145.5 151.8,142 149,138.4 145.8,134.8 142.3,131.3"></polygon><polygon points=" 175,164.6  174.3,169.1 170.7,171.9 166.2,171.1 163.4,167.5"></polygon></g></svg>