<svg version="1.1" viewBox="0 0 200 200" xmlns="http://www.w3.org/2000/svg" xmlns:cc="http://creativecommons.org/ns#" xmlns:dc="http://purl.org/dc/elements/1.1/" xmlns:rdf="http://www.w3.org/1999/02/22-rdf-syntax-ns#"><g><polygon points=" 22,23  176,23 176,27 22,27"></polygon><polygon points=" 176,23  152,25 164,13"></polygon><polygon points=" 107,26  107,87 95,93 95,24"></polygon><polygon points=" 107,26  110,28 105,31"></polygon><polygon points=" 101,53  165,53 165,57 101,57"></polygon><polygon points=" 165,53  141,55 153,43"></polygon><polygon points=" 59,46  59,87 47,93 47,44"></polygon><polygon points=" 59,46  62,48 57,51"></polygon><polygon points=" 15,88  184,88 184,92 15,92"></polygon><polygon points=" 184,88  160,90 172,78"></polygon><polygon points=" 65,108  186,108 186,112 65,112"></polygon><polygon points=" 186,108  166,110 176,99"></polygon><polygon points=" 74.6,92.1  65.9,137 53,140.6 63.3,87.8"></polygon><polygon points=" 74.6,92.1  77.2,94.6 71.9,96.2"></polygon><polygon points=" 61,129  168,129 168,133 61,133"></polygon><polygon points=" 173.9,131.3  173.4,139 172.6,146.1 171.6,152.6 170.2,158.5 168.6,163.9 166.7,168.7 164.3,172.9 161.6,176.6 158.3,179.7 154.6,182 149.4,171.2 151,170.2 152.6,168.7 154.2,166.5 155.8,163.6 157.3,159.9 158.6,155.5 159.8,150.3 160.7,144.5 161.5,137.9 162,130.6"></polygon><polygon points=" 162,129  168,124 179,133 174,136 162,141"></polygon><polygon points=" 154.6,182  152.5,183 150.4,183.8 148.3,184.5 146.2,185.2 144,185.7 141.9,186.2 139.7,186.5 137.4,186.8 135.2,186.9 133,187 133,175 134.7,174.9 136.4,174.8 138.1,174.6 139.7,174.4 141.4,174 143,173.6 144.6,173.1 146.2,172.6 147.8,171.9 149.4,171.2"></polygon><polygon points=" 133,181  133,175 113,175 113,178"></polygon><polygon points=" 14,151  141,151 141,155 14,155"></polygon><polygon points=" 141,151  117,153 129,141"></polygon></g></svg>