<svg version="1.1" viewBox="0 0 200 200" xmlns="http://www.w3.org/2000/svg" xmlns:cc="http://creativecommons.org/ns#" xmlns:dc="http://purl.org/dc/elements/1.1/" xmlns:rdf="http://www.w3.org/1999/02/22-rdf-syntax-ns#"><g><polygon points=" 16,22  183,22 183,26 16,26"></polygon><polygon points=" 183,22  159,24 171,12"></polygon><polygon points=" 45,45  45,88 33,94 33,39"></polygon><polygon points=" 39,45  159,45 159,49 39,49"></polygon><polygon points=" 165,47  165,81 153,87 153,47"></polygon><polygon points=" 153,45  159,40 170,49 165,53 153,47"></polygon><polygon points=" 85,25  85,76 73,82 73,23"></polygon><polygon points=" 85,25  88,27 83,30"></polygon><polygon points=" 125,25  125,76 113,82 113,23"></polygon><polygon points=" 125,25  128,27 123,30"></polygon><polygon points=" 39,77  159,77 159,81 39,81"></polygon><polygon points=" 70.6,82.9  67.1,87.6 63.1,91.9 58.6,96.1 53.7,100 48.3,103.6 42.5,107 36.1,110.2 29.4,113.1 22.1,115.6 14.3,117.8 13.6,116.1 20.5,112.1 27,108.3 32.9,104.4 38.4,100.6 43.3,96.7 47.8,92.8 51.7,88.8 55,84.8 57.9,80.8 60.3,76.7"></polygon><polygon points=" 59.8,77.5  70.6,82.9 60.8,75.8"></polygon><polygon points=" 70.6,82.9  72.1,86.2 66.2,86.2"></polygon><polygon points=" 53,91  179,91 179,95 53,95"></polygon><polygon points=" 179,91  163,93 171,84"></polygon><polygon points=" 60,104  60,142 48,148 48,98"></polygon><polygon points=" 54,104  142,104 142,108 54,108"></polygon><polygon points=" 148,106  148,139 136,145 136,106"></polygon><polygon points=" 136,104  142,99 153,108 148,112 136,106"></polygon><polygon points=" 54,119  142,119 142,123 54,123"></polygon><polygon points=" 54,135  142,135 142,139 54,139"></polygon><polygon points=" 87.5,143.9  82.9,147.7 77.9,151.4 72.5,154.8 66.7,157.9 60.5,160.9 53.9,163.6 46.8,166.1 39.4,168.4 31.5,170.3 23.2,171.8 22.7,170.1 30.3,166.7 37.6,163.3 44.3,160.1 50.7,156.7 56.6,153.4 62,149.9 66.9,146.4 71.4,142.8 75.4,139.1 79,135.4"></polygon><polygon points=" 78.3,136.1  87.5,143.9 79.3,135.1"></polygon><polygon points=" 87.5,143.9  88.2,147.4 82.5,146"></polygon><polygon points=" 74,147  139,147 139,151 74,151"></polygon><polygon points=" 142.6,153.7  133.4,159.7 123.3,165.1 112.5,170 100.9,174.3 88.4,178 75.2,181.2 61.1,183.8 46.2,185.8 30.5,187.2 14,187.8 13.9,186.1 30.1,183.4 45.4,180.5 59.8,177.4 73.4,173.8 86,169.9 97.7,165.5 108.5,160.8 118.3,155.6 127.3,150.1 135.3,144.2"></polygon><polygon points=" 133,147  139,142 150,151 145,154 133,159"></polygon><polygon points=" 74.3,150.1  80.4,154.5 87,158.5 94.4,162.2 102.8,165.4 112,168.2 122.2,170.5 133.5,172.4 145.7,173.9 158.9,174.9 173.2,175.4 172.7,188.5 158,187.3 144.2,185.6 131.5,183.3 119.9,180.5 109.2,177.1 99.6,173.1 91.1,168.6 83.7,163.4 77.6,157.7 72.9,151.3"></polygon><polygon points=" 172.7,188.5  173.2,175.4 184.6,175.8"></polygon></g></svg>