<svg version="1.1" viewBox="0 0 200 200" xmlns="http://www.w3.org/2000/svg" xmlns:cc="http://creativecommons.org/ns#" xmlns:dc="http://purl.org/dc/elements/1.1/" xmlns:rdf="http://www.w3.org/1999/02/22-rdf-syntax-ns#"><g><polygon points=" 12,34  186,34 186,38 12,38"></polygon><polygon points=" 186,34  162,36 174,24"></polygon><polygon points=" 77,13  77,57 65,63 65,11"></polygon><polygon points=" 77,13  80,15 75,18"></polygon><polygon points=" 133,13  133,57 121,63 121,11"></polygon><polygon points=" 133,13  136,15 131,18"></polygon><polygon points=" 84.2,77.9  79.5,79.2 74.4,80.5 68.8,81.8 62.6,83 55.9,84.2 48.7,85.3 40.9,86.4 32.5,87.4 23.6,88.2 14.1,88.8 13.8,87.1 22.9,84.5 31.5,82.1 39.6,80 47.1,77.9 54,75.9 60.4,74 66.1,72.1 71.3,70.2 75.9,68.4 79.9,66.7"></polygon><polygon points=" 78.9,67.1  84.2,77.9 89.2,76"></polygon><polygon points=" 89.2,76  89.4,79.1 82.8,76.3"></polygon><polygon points=" 12,107  91,107 91,111 12,111"></polygon><polygon points=" 91,107  67,109 79,97"></polygon><polygon points=" 59,82  59,182 47,188 47,80"></polygon><polygon points=" 59,82  62,84 57,87"></polygon><polygon points=" 55.4,111.7  52.7,118.5 49.6,124.9 46.2,131.2 42.5,137.2 38.4,143 34,148.6 29.2,153.8 24.1,158.8 18.5,163.4 12.5,167.6 11.4,166.3 15.9,160.7 20.1,155.2 24.2,149.6 27.9,144 31.3,138.3 34.5,132.5 37.3,126.6 39.8,120.6 42,114.4 43.9,108.1"></polygon><polygon points=" 43.6,109  55.4,111.7 44.4,106.5"></polygon><polygon points=" 55.4,111.7  57.6,114.6 51.9,115.9"></polygon><polygon points=" 56.2,123.4  60,124.1 63.8,124.6 67.4,125.3 70.8,126.2 74.1,127.1 77.1,128.1 80,129.3 82.8,130.6 85.3,132 87.8,133.5 79.7,142.4 78.4,140.8 76.8,139.1 75,137.4 73,135.7 70.7,133.9 68.2,132.2 65.4,130.4 62.4,128.6 59.2,126.7 55.6,125.1"></polygon><polygon points=" 87.8,133.5  89.7,137.6 88.2,142 84,143.9 79.7,142.4"></polygon><polygon points=" 94,103  183,103 183,107 94,107"></polygon><polygon points=" 183,103  159,105 171,93"></polygon><polygon points=" 139,67  139,110 127,110 127,65"></polygon><polygon points=" 139,67  142,69 137,72"></polygon><polygon points=" 127,110  129.4,113.6 133,116 136.6,113.6 139,110"></polygon><polygon points=" 138.9,110.6  137,122 134.3,132.7 130.8,142.6 126.6,151.8 121.6,160.2 115.8,167.7 109.3,174.4 102,180.2 94,185 85.4,188.8 84.5,187.1 92,181.8 98.6,176 104.6,169.8 109.8,163.1 114.3,155.7 118.2,147.8 121.4,139.2 123.9,129.9 125.8,120 127,109.3"></polygon><polygon points=" 136,100.8  138.8,111.5 141.9,121.4 145.4,130.7 149.4,139.3 153.8,147.2 158.8,154.5 164.2,161.2 170.2,167.2 176.7,172.6 183.7,177.5 176.2,188.4 168.7,182.3 161.8,175.5 155.7,168.1 150.3,160.2 145.6,151.7 141.7,142.6 138.6,133 136.2,122.9 134.7,112.2 134.2,101.1"></polygon><polygon points=" 176.2,188.4  183.7,177.5 187.2,179.9"></polygon><polygon points=" 148.3,68.6  151.6,70.1 154.9,71.2 158,72.6 160.9,74.2 163.5,75.9 166,77.8 168.3,79.9 170.3,82.1 172.1,84.5 173.6,87.1 162.3,91.1 162,89.3 161.4,87.4 160.7,85.5 159.6,83.4 158.3,81.3 156.7,79.1 154.8,76.9 152.7,74.6 150.3,72.2 147.4,70.2"></polygon><polygon points=" 173.6,87.1  173.3,91.7 170,94.8 165.4,94.5 162.3,91.1"></polygon></g></svg>