<svg version="1.1" viewBox="0 0 200 200" xmlns="http://www.w3.org/2000/svg" xmlns:cc="http://creativecommons.org/ns#" xmlns:dc="http://purl.org/dc/elements/1.1/" xmlns:rdf="http://www.w3.org/1999/02/22-rdf-syntax-ns#"><g><polygon points=" 12,31  186,31 186,35 12,35"></polygon><polygon points=" 186,31  162,33 174,21"></polygon><polygon points=" 77,13  77,51 65,57 65,11"></polygon><polygon points=" 77,13  80,15 75,18"></polygon><polygon points=" 133,13  133,51 121,57 121,11"></polygon><polygon points=" 133,13  136,15 131,18"></polygon><polygon points=" 36,58  36,190 24,196 24,52"></polygon><polygon points=" 30,58  176,58 176,62 30,62"></polygon><polygon points=" 176,58  152,60 164,48"></polygon><polygon points=" 30,186  185,186 185,190 30,190"></polygon><polygon points=" 185,186  161,188 173,176"></polygon><polygon points=" 53.3,83.8  55.9,85.5 58.7,87.1 61.3,88.9 63.6,90.9 65.9,93 67.9,95.4 69.7,98 71.4,100.7 72.9,103.6 74.1,106.7 62.4,109.4 62.2,106.9 61.8,104.5 61.2,102 60.5,99.6 59.6,97.2 58.5,94.8 57.3,92.4 55.8,89.9 54.3,87.4 52.2,85.3"></polygon><polygon points=" 74.1,106.7  73.3,111.2 69.6,113.9 65.1,113.1 62.4,109.4"></polygon><polygon points=" 47.6,142.3  50.8,140.8 53.9,139.1 57.2,137.4 60.4,135.5 63.8,133.6 67.1,131.7 70.6,129.6 74.1,127.6 77.8,125.5 81.4,123.3 82.5,124.6 79.8,127.9 77.1,131.2 74.3,134.2 71.4,137.2 68.6,140 65.7,142.7 62.8,145.3 59.8,147.8 56.9,150.2 54,152.5"></polygon><polygon points=" 54,152.5  47.6,142.3 45.9,143.4"></polygon><polygon points=" 54,152.5  57.3,154 57.5,146.8"></polygon><polygon points=" 88,67  88,175 76,181 76,65"></polygon><polygon points=" 88,67  91,69 86,72"></polygon><polygon points=" 90,108  172,108 172,112 90,112"></polygon><polygon points=" 172,108  148,110 160,98"></polygon><polygon points=" 137,70  137,164 125,170 125,68"></polygon><polygon points=" 137,70  140,72 135,75"></polygon><polygon points=" 96,165  167,165 167,169 96,169"></polygon><polygon points=" 167,165  143,167 155,155"></polygon></g></svg>