<svg version="1.1" viewBox="0 0 200 200" xmlns="http://www.w3.org/2000/svg" xmlns:cc="http://creativecommons.org/ns#" xmlns:dc="http://purl.org/dc/elements/1.1/" xmlns:rdf="http://www.w3.org/1999/02/22-rdf-syntax-ns#"><g><polygon points=" 12,30  186,30 186,34 12,34"></polygon><polygon points=" 186,30  162,32 174,20"></polygon><polygon points=" 77,13  77,49 65,55 65,11"></polygon><polygon points=" 77,13  80,15 75,18"></polygon><polygon points=" 133,13  133,49 121,55 121,11"></polygon><polygon points=" 133,13  136,15 131,18"></polygon><polygon points=" 85.2,60.3  79.3,67.4 73.1,74.1 66.6,80.4 59.8,86.3 52.7,91.7 45.2,96.7 37.5,101.3 29.4,105.4 21,108.9 12.3,111.8 11.6,110.1 19.4,105.5 26.8,100.7 34,95.7 40.9,90.5 47.4,85.1 53.7,79.3 59.6,73.3 65.2,66.9 70.5,60.2 75.5,53.2"></polygon><polygon points=" 74.9,54  85.2,60.3 76,52.6"></polygon><polygon points=" 85.2,60.3  86.5,63.7 80.6,63.2"></polygon><polygon points=" 19.3,55.7  37.9,66.2 52.2,79.2 62.8,93.5 70.1,108.4 74.5,123.2 76.5,137.3 76.5,150.4 74.9,161.7 72.1,171.1 68,178.3 58.9,170.5 61.5,166.5 64.1,159.2 65.9,149.4 66.5,137.8 65.2,124.9 61.9,111.3 55.9,97.4 47,83.6 34.5,70.3 18.4,57.2"></polygon><polygon points=" 68,178.3  63.9,180.3 59.6,178.9 57.5,174.8 58.9,170.5"></polygon><polygon points=" 68,178.3  66.4,180.1 64.6,181.7 62.7,183.1 60.7,184.4 58.6,185.5 56.4,186.4 54.1,187.1 51.8,187.6 49.4,187.9 47,188 47,176 48.4,175.9 49.8,175.7 51.2,175.5 52.4,175.1 53.6,174.6 54.7,174 55.8,173.3 56.8,172.5 57.9,171.6 58.9,170.5"></polygon><polygon points=" 47,182  47,176 31,176 31,179"></polygon><polygon points=" 69.6,111.8  65.7,117.5 61.3,123 56.6,128.3 51.5,133.4 46,138.3 40.1,142.9 33.8,147.3 27.1,151.5 20,155.3 12.4,158.7 11.5,157.2 17.9,152.1 24,147.1 29.8,142.1 35.2,137.1 40.2,132.1 44.8,127 49,121.8 52.8,116.5 56.2,111.2 59.3,105.8"></polygon><polygon points=" 58.8,106.6  69.6,111.8 59.8,104.9"></polygon><polygon points=" 69.6,111.8  71.2,115.1 65.4,115.1"></polygon><polygon points=" 171.4,67.9  166.7,69.4 161.5,70.8 155.9,72 149.7,73.2 143.1,74.2 135.9,75.1 128.2,75.9 120,76.5 111.3,76.8 102,76.8 101.9,75.1 110.9,73 119.3,71.1 127.2,69.4 134.6,67.6 141.4,65.9 147.6,64.1 153.3,62.3 158.3,60.5 162.8,58.7 166.7,56.8"></polygon><polygon points=" 165.7,57.2  171.4,67.9 175.6,66.1"></polygon><polygon points=" 175.6,66.1  175.8,69.3 169.4,66.6"></polygon><polygon points=" 97,105  185,105 185,109 97,109"></polygon><polygon points=" 185,105  161,107 173,95"></polygon><polygon points=" 144,73  144,184 132,190 132,71"></polygon><polygon points=" 144,73  147,75 142,78"></polygon><polygon points=" 140.4,109.6  137.4,117.9 133.9,126 129.8,133.9 125.3,141.5 120.1,148.8 114.5,155.9 108.4,162.6 101.7,169 94.4,175 86.5,180.6 85.4,179.3 91.8,172.3 97.8,165.3 103.4,158.3 108.5,151.2 113.1,144.1 117.2,136.8 120.9,129.4 124,121.8 126.7,114.1 128.9,106.3"></polygon><polygon points=" 128.6,107.2  140.4,109.6 129.4,104.6"></polygon><polygon points=" 140.4,109.6  142.8,112.3 137.1,113.8"></polygon><polygon points=" 144.1,107.6  148.1,114.6 151.8,121.3 155.6,127.7 159.4,133.8 163.3,139.5 167.3,144.9 171.4,150 175.6,154.7 180,159.1 184.5,163.2 175.4,172.7 170.9,167.7 166.6,162.3 162.6,156.6 158.8,150.6 155.3,144.4 152.1,137.8 149.1,130.9 146.4,123.7 144.2,116.1 142.4,108.2"></polygon><polygon points=" 175.4,172.7  184.5,163.2 186.1,164.7"></polygon></g></svg>