<svg version="1.1" viewBox="0 0 200 200" xmlns="http://www.w3.org/2000/svg" xmlns:cc="http://creativecommons.org/ns#" xmlns:dc="http://purl.org/dc/elements/1.1/" xmlns:rdf="http://www.w3.org/1999/02/22-rdf-syntax-ns#"><g><polygon points=" 14,25  186,25 186,29 14,29"></polygon><polygon points=" 186,25  162,27 174,15"></polygon><polygon points=" 80,13  80,39 68,45 68,11"></polygon><polygon points=" 80,13  83,15 78,18"></polygon><polygon points=" 131,13  131,39 119,45 119,11"></polygon><polygon points=" 131,13  134,15 129,18"></polygon><polygon points=" 66.5,44.9  64.1,46.6 61.7,48.4 59,50.1 56.2,51.9 53.2,53.7 50,55.5 46.6,57.3 43.1,59.1 39.3,60.8 35.4,62.7 34.5,61.2 37.7,58.4 40.5,55.5 43.3,52.7 45.9,50.1 48.4,47.6 50.7,45.1 52.8,42.8 54.7,40.6 56.4,38.5 58,36.4"></polygon><polygon points=" 57.3,37.1  66.5,44.9 58.3,36.1"></polygon><polygon points=" 66.5,44.9  67.2,48.4 61.5,47"></polygon><polygon points=" 24.2,54.5  27.8,55.7 31.4,56.6 34.9,57.8 38.2,59.1 41.3,60.6 44.4,62.1 47.3,63.8 50.1,65.7 52.8,67.6 55.3,69.7 46.5,77.8 44.9,75.6 43.2,73.4 41.3,71.3 39.2,69.1 37,66.9 34.6,64.8 32.1,62.6 29.4,60.4 26.6,58.1 23.5,56.2"></polygon><polygon points=" 55.3,69.7  56.9,74 55,78.2 50.7,79.7 46.5,77.8"></polygon><polygon points=" 86.7,61.7  81.3,67.2 75.8,72.4 70.1,77.4 64.4,82.1 58.5,86.6 52.5,90.9 46.5,94.9 40.3,98.5 33.9,101.8 27.4,104.7 26.5,103.2 31.9,98.7 37.2,94.1 42.6,89.6 47.9,84.9 53.1,80.1 58.2,75.2 63.2,70.1 68.2,64.8 73,59.3 77.8,53.7"></polygon><polygon points=" 77.1,54.4  86.7,61.7 78.2,53.3"></polygon><polygon points=" 86.7,61.7  87.6,65.2 81.9,64.1"></polygon><polygon points=" 19.3,98.9  26.2,98.4 33.2,97.9 40,97.3 46.8,96.8 53.6,96.2 60.3,95.7 67,95.1 73.6,94.6 80.2,94.3 86.8,94.1 87.1,95.8 80.9,98 74.5,99.9 68,101.6 61.5,103.2 54.8,104.6 48.1,106 41.3,107.3 34.5,108.5 27.6,109.7 20.6,110.8"></polygon><polygon points=" 20.6,110.8  19.3,98.9 17.3,99.1"></polygon><polygon points=" 20.6,110.8  22.9,113.6 26.2,107.2"></polygon><polygon points=" 74.3,79  76.8,81.1 79.5,82.9 82,84.9 84.3,87.1 86.5,89.3 88.6,91.7 90.5,94.1 92.3,96.7 94,99.3 95.5,102 84.3,106.2 83.7,103.7 83,101.2 82.2,98.7 81.3,96.1 80.2,93.5 79,90.9 77.7,88.3 76.4,85.6 74.9,82.8 73,80.3"></polygon><polygon points=" 95.5,102  95.3,106.6 92,109.8 87.4,109.5 84.3,106.2"></polygon><polygon points=" 147.5,44.9  145.1,46.6 142.7,48.4 140,50.1 137.2,51.9 134.2,53.7 131,55.5 127.6,57.3 124.1,59.1 120.3,60.8 116.4,62.7 115.5,61.2 118.7,58.4 121.5,55.5 124.3,52.7 126.9,50.1 129.4,47.6 131.7,45.1 133.8,42.8 135.7,40.6 137.4,38.5 139,36.4"></polygon><polygon points=" 138.3,37.1  147.5,44.9 139.3,36.1"></polygon><polygon points=" 147.5,44.9  148.2,48.4 142.5,47"></polygon><polygon points=" 105.2,54.5  108.8,55.7 112.4,56.6 115.9,57.8 119.2,59.1 122.3,60.6 125.4,62.1 128.3,63.8 131.1,65.7 133.8,67.6 136.3,69.7 127.5,77.8 125.9,75.6 124.2,73.4 122.3,71.3 120.2,69.1 118,66.9 115.6,64.8 113.1,62.6 110.4,60.4 107.6,58.1 104.5,56.2"></polygon><polygon points=" 136.3,69.7  137.9,74 136,78.2 131.7,79.7 127.5,77.8"></polygon><polygon points=" 167.7,61.7  162.3,67.2 156.8,72.4 151.1,77.4 145.4,82.1 139.5,86.6 133.5,90.9 127.5,94.9 121.3,98.5 114.9,101.8 108.4,104.7 107.5,103.2 112.9,98.7 118.2,94.1 123.6,89.6 128.9,84.9 134.1,80.1 139.2,75.2 144.2,70.1 149.2,64.8 154,59.3 158.8,53.7"></polygon><polygon points=" 158.1,54.4  167.7,61.7 159.2,53.3"></polygon><polygon points=" 167.7,61.7  168.6,65.2 162.9,64.1"></polygon><polygon points=" 104.3,98.9  111.3,98.4 118.2,97.9 125.1,97.4 131.9,96.9 138.6,96.5 145.4,96 152,95.6 158.6,95.3 165.2,95.1 171.8,95.1 172.1,96.8 165.8,98.8 159.4,100.6 152.9,102.1 146.4,103.5 139.8,104.9 133.1,106.2 126.3,107.4 119.5,108.6 112.6,109.7 105.6,110.8"></polygon><polygon points=" 105.6,110.8  104.3,98.9 102.3,99.1"></polygon><polygon points=" 105.6,110.8  107.9,113.6 111.2,107.2"></polygon><polygon points=" 158.3,79  161,81 163.9,82.9 166.6,85 169.1,87.3 171.5,89.7 173.8,92.3 175.9,95.1 177.9,97.9 179.7,100.9 181.5,104 170.3,108.3 169.5,105.4 168.6,102.5 167.6,99.7 166.4,96.9 165.2,94.1 163.8,91.3 162.3,88.5 160.8,85.7 159.1,82.9 157.1,80.3"></polygon><polygon points=" 181.5,104  181.3,108.5 178,111.7 173.5,111.6 170.3,108.3"></polygon><polygon points=" 17,131  181,131 181,135 17,135"></polygon><polygon points=" 181,131  157,133 169,121"></polygon><polygon points=" 105,114  105,182 93,188 93,112"></polygon><polygon points=" 105,114  108,116 103,119"></polygon><polygon points=" 96.9,137.6  90.8,143.8 84.2,149.6 77,155 69.4,160 61.2,164.6 52.4,168.7 43.2,172.5 33.4,175.8 23.1,178.6 12.2,180.8 11.7,179.1 21.9,175 31.5,170.8 40.6,166.5 49,162 56.9,157.2 64.2,152.2 71,147 77.1,141.5 82.7,135.8 87.7,129.8"></polygon><polygon points=" 87.1,130.6  96.9,137.6 88.1,129.4"></polygon><polygon points=" 96.9,137.6  97.9,141 92.1,140.1"></polygon><polygon points=" 105.3,133  112,137.2 118.8,141.3 125.7,145.4 132.8,149.3 140.2,153 147.8,156.6 155.7,159.9 163.8,163 172.3,166 181,168.7 176.9,181.2 167.9,177.7 159.3,174 151.1,170 143.2,165.7 135.6,161.2 128.4,156.4 121.6,151.4 115.3,146.1 109.4,140.4 104.1,134.3"></polygon><polygon points=" 176.9,181.2  181,168.7 188.5,171.2"></polygon></g></svg>