<svg version="1.1" viewBox="0 0 200 200" xmlns="http://www.w3.org/2000/svg" xmlns:cc="http://creativecommons.org/ns#" xmlns:dc="http://purl.org/dc/elements/1.1/" xmlns:rdf="http://www.w3.org/1999/02/22-rdf-syntax-ns#"><g><polygon points=" 54.6,15.1  52.3,23.8 49.6,32.3 46.5,40.5 42.9,48.4 39,56.1 34.6,63.4 29.8,70.5 24.6,77.3 18.8,83.6 12.6,89.5 11.3,88.4 15.9,81.3 20.2,74.2 24.2,67 28,59.7 31.3,52.3 34.4,44.8 37,37 39.3,29.1 41.3,21 42.9,12.7"></polygon><polygon points=" 42.7,13.7  54.6,15.1 43.2,10.9"></polygon><polygon points=" 54.6,15.1  57.2,17.7 51.7,19.6"></polygon><polygon points=" 42,40  105,40 105,44 42,44"></polygon><polygon points=" 105,40  81,42 93,30"></polygon><polygon points=" 49.3,41.8  53.5,44 57.5,46.3 61.2,48.9 64.6,51.6 67.8,54.6 70.7,57.8 73.4,61.1 75.8,64.7 77.9,68.3 79.7,72.2 68.3,76 67.4,72.7 66.3,69.4 65,66.1 63.4,62.9 61.5,59.6 59.4,56.4 57,53.2 54.4,49.9 51.5,46.5 48.3,43.3"></polygon><polygon points=" 79.7,72.2  79.3,76.8 75.9,79.8 71.3,79.4 68.3,76"></polygon><polygon points=" 133.6,15.2  131.3,23.7 128.5,31.8 125.3,39.7 121.7,47.3 117.6,54.5 113.1,61.3 108.2,67.8 102.8,73.9 96.9,79.5 90.6,84.6 89.3,83.3 94.1,76.9 98.7,70.5 102.9,64 106.7,57.3 110.2,50.4 113.3,43.3 116,36 118.3,28.5 120.3,20.7 121.9,12.7"></polygon><polygon points=" 121.7,13.7  133.6,15.2 122.3,10.9"></polygon><polygon points=" 133.6,15.2  136.1,17.7 130.6,19.6"></polygon><polygon points=" 120,40  186,40 186,44 120,44"></polygon><polygon points=" 186,40  162,42 174,30"></polygon><polygon points=" 127.3,41.8  131.5,44 135.5,46.3 139.3,48.8 142.8,51.6 146,54.6 149,57.7 151.8,61 154.3,64.5 156.5,68.2 158.5,72 147.3,76.3 146.2,72.9 145,69.6 143.5,66.3 141.8,63 139.8,59.7 137.6,56.4 135.1,53.2 132.4,49.9 129.5,46.5 126.3,43.3"></polygon><polygon points=" 158.5,72  158.3,76.6 155,79.8 150.5,79.6 147.3,76.3"></polygon><polygon points=" 22,90  162,90 162,94 22,94"></polygon><polygon points=" 168,92  168,152 156,152 156,92"></polygon><polygon points=" 156,90  162,85 173,94 168,98 156,92"></polygon><polygon points=" 156,152  158.4,155.6 162,158 165.6,155.6 168,152"></polygon><polygon points=" 168,152  167.8,154.5 167.4,157 166.6,159.4 165.3,161.7 163.7,163.7 161.7,165.3 159.4,166.6 157,167.4 154.5,167.8 152,168 152,156 153.2,155.9 154.1,155.7 154.7,155.5 155,155.4 155.2,155.2 155.4,155 155.5,154.7 155.7,154.1 155.9,153.2 156,152"></polygon><polygon points=" 152,162  152,156 136,156 136,159"></polygon><polygon points=" 88,93  88,181 76,187 76,91"></polygon><polygon points=" 88,93  91,95 86,98"></polygon></g></svg>