<svg version="1.1" viewBox="0 0 200 200" xmlns="http://www.w3.org/2000/svg" xmlns:cc="http://creativecommons.org/ns#" xmlns:dc="http://purl.org/dc/elements/1.1/" xmlns:rdf="http://www.w3.org/1999/02/22-rdf-syntax-ns#"><g><polygon points=" 54.3,15.8  52,21.2 49.2,26.5 46,31.6 42.4,36.6 38.5,41.3 34.1,45.8 29.4,50.2 24.2,54.3 18.6,58.2 12.5,61.7 11.4,60.2 16.1,55.2 20.6,50.4 24.7,45.6 28.4,40.8 31.8,36.1 34.8,31.3 37.4,26.5 39.6,21.7 41.4,16.9 42.9,12"></polygon><polygon points=" 42.6,12.9  54.3,15.8 43.4,10.5"></polygon><polygon points=" 54.3,15.8  56.5,18.6 50.8,19.9"></polygon><polygon points=" 42,29  105,29 105,33 42,33"></polygon><polygon points=" 105,29  81,31 93,19"></polygon><polygon points=" 49.2,30.5  53.1,31.9 57,33 60.5,34.3 63.8,35.8 66.9,37.4 69.7,39.1 72.4,40.9 74.8,42.9 76.9,45.1 78.8,47.5 68.2,53.2 67.6,51.4 66.8,49.5 65.6,47.6 64.1,45.5 62.2,43.4 60.1,41.2 57.7,39 54.9,36.7 52,34.3 48.5,32.2"></polygon><polygon points=" 78.8,47.5  79.2,52 76.4,55.6 71.8,56 68.2,53.2"></polygon><polygon points=" 133.3,15.8  130.9,21.3 128.1,26.5 124.9,31.5 121.2,36.2 117.1,40.7 112.6,44.9 107.7,48.9 102.4,52.5 96.6,55.8 90.4,58.7 89.5,57.2 94.5,52.7 99.1,48.3 103.3,44 107.2,39.6 110.6,35.2 113.7,30.7 116.3,26.1 118.6,21.5 120.5,16.8 121.9,12"></polygon><polygon points=" 121.6,12.9  133.3,15.8 122.4,10.5"></polygon><polygon points=" 133.3,15.8  135.5,18.6 129.8,19.9"></polygon><polygon points=" 120,29  186,29 186,33 120,33"></polygon><polygon points=" 186,29  162,31 174,19"></polygon><polygon points=" 127.2,30.5  131.2,31.9 135,33 138.6,34.3 141.9,35.8 145.1,37.3 148,39 150.7,40.9 153.2,42.8 155.5,45 157.5,47.3 147.3,53.5 146.5,51.7 145.4,49.7 144.1,47.7 142.4,45.6 140.5,43.5 138.3,41.3 135.8,39 133,36.7 130,34.3 126.5,32.2"></polygon><polygon points=" 157.5,47.3  158.2,51.8 155.5,55.5 151,56.2 147.3,53.5"></polygon><polygon points=" 21,74  111,74 111,78 21,78"></polygon><polygon points=" 111,74  87,76 99,64"></polygon><polygon points=" 72,60  72,89 60,95 60,58"></polygon><polygon points=" 72,60  75,62 70,65"></polygon><polygon points=" 11,90  187,90 187,94 11,94"></polygon><polygon points=" 187,90  163,92 175,80"></polygon><polygon points=" 145.2,62.4  148.4,63.3 151.7,63.8 154.7,64.5 157.5,65.3 160.2,66.3 162.7,67.3 165.1,68.5 167.2,69.9 169.3,71.4 171.1,73.1 161.3,79.9 160.8,78.6 160.1,77.2 159.1,75.8 157.9,74.2 156.3,72.6 154.5,70.9 152.4,69.2 150.1,67.4 147.6,65.6 144.6,64.1"></polygon><polygon points=" 171.1,73.1  172.1,77.5 169.7,81.4 165.2,82.3 161.3,79.9"></polygon><polygon points=" 135,60  136,83.3 138.8,103.5 143,120.7 148.3,135.1 154.2,146.8 160.4,155.9 166.5,162.6 172.1,167 176.5,169.4 179,170 179,182 172.3,180.6 165.5,177.1 158.3,171.3 151,163.3 143.9,152.9 137.3,139.9 131.6,124.2 127,105.8 124,84.4 123,60"></polygon><polygon points=" 123,61  135,60 123,57.6"></polygon><polygon points=" 135,60  138,62 133,65"></polygon><polygon points=" 179,170  183.2,171.8 185,176 183.2,180.2 179,182"></polygon><polygon points=" 179,171  181,145 179,145 173,171"></polygon><polygon points=" 174.2,112  169.8,122.3 165.2,131.8 160.3,140.6 155.1,148.4 149.8,155.5 144.1,161.7 138.3,167 132.1,171.3 125.8,174.6 119.3,176.8 118.6,175.1 123.9,171.3 128.9,167 133.8,162.1 138.5,156.6 143,150.4 147.3,143.4 151.5,135.7 155.5,127.2 159.3,117.9 163,107.8"></polygon><polygon points=" 162.6,108.7  174.2,112 163.5,106.4"></polygon><polygon points=" 174.2,112  176.3,114.9 170.6,116"></polygon><polygon points=" 59,97  59,167 47,173 47,95"></polygon><polygon points=" 59,97  62,99 57,102"></polygon><polygon points=" 87,97  87,163 75,169 75,95"></polygon><polygon points=" 87,97  90,99 85,102"></polygon><polygon points=" 17.3,117  20.3,119.4 23.3,121.7 26,124.2 28.5,126.9 30.8,129.7 32.9,132.7 34.8,135.8 36.5,139 38,142.3 39.2,145.8 27.5,148.3 27.1,145.3 26.7,142.4 26,139.5 25.1,136.5 24.1,133.6 22.9,130.6 21.5,127.5 19.9,124.5 18.2,121.3 16,118.3"></polygon><polygon points=" 39.2,145.8  38.3,150.3 34.6,152.9 30.1,152 27.5,148.3"></polygon><polygon points=" 118.7,121.7  116.5,125 114.1,128.4 111.7,131.7 109.3,135 106.8,138.3 104.2,141.6 101.5,144.8 98.7,148.1 95.7,151.2 92.7,154.4 91.2,153.5 93,149.5 94.6,145.5 96.4,141.6 98.1,137.8 99.9,134.1 101.6,130.4 103.3,126.7 105,123.1 106.6,119.5 108.2,115.9"></polygon><polygon points=" 107.7,116.8  118.7,121.7 108.8,114.9"></polygon><polygon points=" 118.7,121.7  120.4,124.9 114.5,125.1"></polygon><polygon points=" 13.2,169.9  24.3,168.8 35.3,167.8 46.4,166.8 57.6,165.8 68.7,165 79.9,164.1 91.1,163.4 102.3,162.7 113.6,162.3 124.9,162.1 125,163.8 114,166 102.9,168.1 91.8,169.9 80.7,171.7 69.7,173.4 58.7,175.1 47.6,176.8 36.6,178.4 25.6,180.1 14.7,181.8"></polygon><polygon points=" 14.7,181.8  13.2,169.9 11.2,170.1"></polygon><polygon points=" 14.7,181.8  17,184.5 20.3,178.1"></polygon></g></svg>