<svg version="1.1" viewBox="0 0 200 200" xmlns="http://www.w3.org/2000/svg" xmlns:cc="http://creativecommons.org/ns#" xmlns:dc="http://purl.org/dc/elements/1.1/" xmlns:rdf="http://www.w3.org/1999/02/22-rdf-syntax-ns#"><g><polygon points=" 67.3,20.3  64.9,22.8 62.4,25.5 59.7,28.2 56.9,31 53.8,33.8 50.6,36.7 47.2,39.6 43.5,42.6 39.6,45.5 35.6,48.6 34.3,47.3 37.3,43.3 40.1,39.3 42.8,35.5 45.3,31.9 47.8,28.5 50,25.2 52.2,22 54.1,19 55.9,16.1 57.5,13.3"></polygon><polygon points=" 56.9,14.1  67.3,20.3 58,12.6"></polygon><polygon points=" 67.3,20.3  68.5,23.6 62.7,23.2"></polygon><polygon points=" 22.2,40.6  26.3,42.1 30.3,43.3 34,44.7 37.4,46.1 40.5,47.6 43.3,49.1 46,50.7 48.3,52.4 50.5,54.2 52.4,56.2 42.3,62.6 41.7,61.2 40.8,59.6 39.6,57.8 38,55.8 36.1,53.8 33.8,51.6 31.2,49.4 28.3,47 25.1,44.5 21.5,42.2"></polygon><polygon points=" 52.4,56.2  53.1,60.7 50.6,64.5 46.1,65.2 42.3,62.6"></polygon><polygon points=" 83.9,44.6  79.4,49.3 74.8,54.2 69.9,59.2 64.7,64.3 59.4,69.5 53.8,74.8 48,80.2 41.8,85.7 35.4,91.2 28.6,96.6 27.3,95.3 32.7,88.5 38,81.9 43.2,75.7 48.3,69.6 53.2,63.8 57.9,58.1 62.4,52.5 66.7,47.1 70.8,41.9 74.7,36.9"></polygon><polygon points=" 74.1,37.6  83.9,44.6 75.1,36.4"></polygon><polygon points=" 83.9,44.6  84.9,48 79.2,47.1"></polygon><polygon points=" 20.9,90.9  27.5,90 34.2,89.2 40.8,88.3 47.4,87.5 53.9,86.7 60.5,86 67.1,85.3 73.6,84.7 80.2,84.3 86.8,84.1 87.1,85.8 80.9,88 74.6,90 68.3,91.8 61.9,93.5 55.5,95.1 49,96.7 42.5,98.2 36,99.7 29.5,101.2 23,102.7"></polygon><polygon points=" 23,102.7  20.9,90.9 18.9,91.2"></polygon><polygon points=" 23,102.7  25.5,105.3 28.4,98.7"></polygon><polygon points=" 72.3,69.8  75.7,71.8 79,73.5 82.1,75.4 85,77.3 87.6,79.4 89.9,81.6 92.1,83.8 93.9,86.2 95.6,88.8 96.9,91.4 85.4,94.7 85.2,92.9 84.7,91 84,88.9 83.1,86.7 81.8,84.3 80.3,81.9 78.5,79.3 76.4,76.7 74.1,73.8 71.2,71.3"></polygon><polygon points=" 96.9,91.4  96.3,96 92.8,98.8 88.2,98.3 85.4,94.7"></polygon><polygon points=" 146.3,19.2  143.8,22.1 141.2,25 138.4,27.9 135.6,30.8 132.6,33.6 129.5,36.3 126.2,39 122.8,41.6 119.2,44.1 115.6,46.6 114.3,45.3 117,41.8 119.4,38.3 121.9,34.9 124.3,31.5 126.5,28.3 128.7,25 130.8,21.8 132.8,18.6 134.7,15.5 136.4,12.4"></polygon><polygon points=" 135.9,13.2  146.3,19.2 136.9,11.7"></polygon><polygon points=" 146.3,19.2  147.7,22.5 141.8,22.2"></polygon><polygon points=" 100.2,36.5  104.6,37.7 108.8,38.9 112.8,40.2 116.6,41.8 120.2,43.4 123.5,45.2 126.6,47.2 129.6,49.3 132.3,51.5 134.8,53.9 125.4,61.3 124,59.1 122.3,56.8 120.4,54.6 118.2,52.3 115.8,50 113.1,47.6 110.1,45.3 106.8,42.9 103.4,40.4 99.5,38.2"></polygon><polygon points=" 134.8,53.9  136,58.3 133.8,62.3 129.4,63.5 125.4,61.3"></polygon><polygon points=" 170.2,37.3  164.6,44.3 159,51.1 153.3,57.6 147.7,63.8 142,69.7 136.2,75.4 130.5,80.7 124.6,85.8 118.6,90.4 112.5,94.6 111.4,93.3 116,87.6 120.8,81.9 125.7,76.2 130.7,70.2 135.6,64.1 140.6,57.7 145.6,51.2 150.6,44.4 155.5,37.4 160.5,30.2"></polygon><polygon points=" 159.9,31  170.2,37.3 161,29.6"></polygon><polygon points=" 170.2,37.3  171.5,40.7 165.6,40.2"></polygon><polygon points=" 104.4,87.9  110.4,87.6 116.6,87.3 122.8,86.9 129.2,86.6 135.7,86.2 142.3,85.8 149,85.5 155.8,85.2 162.7,85 169.8,85.1 170.1,86.8 163.3,88.8 156.5,90.5 149.8,92 143.2,93.4 136.7,94.6 130.3,95.8 124,96.9 117.7,97.9 111.6,98.9 105.5,99.8"></polygon><polygon points=" 105.5,99.8  104.4,87.9 102.4,88.1"></polygon><polygon points=" 105.5,99.8  107.8,102.6 111.2,96.3"></polygon><polygon points=" 154.3,63.9  158.1,66.6 161.9,69.2 165.3,72 168.5,75 171.4,78.1 174.1,81.3 176.6,84.6 178.8,88 180.8,91.5 182.6,95.1 171.3,99.1 170.4,95.9 169.4,92.6 168.1,89.4 166.6,86.1 164.9,82.7 162.9,79.4 160.8,75.9 158.4,72.5 155.9,68.8 153.1,65.3"></polygon><polygon points=" 182.6,95.1  182.3,99.7 178.9,102.8 174.4,102.5 171.3,99.1"></polygon><polygon points=" 17,125  181,125 181,129 17,129"></polygon><polygon points=" 181,125  157,127 169,115"></polygon><polygon points=" 105,105  105,182 93,188 93,103"></polygon><polygon points=" 105,105  108,107 103,110"></polygon><polygon points=" 97.1,131.4  91,138.2 84.4,144.6 77.3,150.6 69.6,156.2 61.4,161.5 52.6,166.3 43.3,170.6 33.5,174.6 23.2,178 12.2,180.8 11.7,179.1 21.8,174.4 31.4,169.6 40.4,164.8 48.9,159.7 56.7,154.3 64,148.8 70.8,143 76.9,136.9 82.5,130.6 87.6,124.1"></polygon><polygon points=" 87,124.9  97.1,131.4 88,123.5"></polygon><polygon points=" 97.1,131.4  98.2,134.8 92.5,134.1"></polygon><polygon points=" 105.3,127  112.1,132 118.9,136.9 125.8,141.6 132.9,146 140.3,150.1 147.9,154 155.8,157.6 163.9,160.9 172.3,163.9 181,166.7 176.9,179.2 167.9,175.6 159.2,171.8 150.9,167.5 143,163 135.4,158.1 128.3,152.9 121.5,147.3 115.1,141.4 109.2,135.1 104,128.3"></polygon><polygon points=" 176.9,179.2  181,166.7 188.5,169.2"></polygon></g></svg>