<svg version="1.1" viewBox="0 0 200 200" xmlns="http://www.w3.org/2000/svg" xmlns:cc="http://creativecommons.org/ns#" xmlns:dc="http://purl.org/dc/elements/1.1/" xmlns:rdf="http://www.w3.org/1999/02/22-rdf-syntax-ns#"><g><polygon points=" 13,30  187,30 187,34 13,34"></polygon><polygon points=" 187,30  163,32 175,20"></polygon><polygon points=" 78,14  78,48 66,54 66,12"></polygon><polygon points=" 78,14  81,16 76,19"></polygon><polygon points=" 134,14  134,48 122,54 122,12"></polygon><polygon points=" 134,14  137,16 132,19"></polygon><polygon points=" 31.9,50  32.4,55.6 32.7,60.9 32.7,65.9 32.2,70.6 31.3,75 30.1,79 28.4,82.7 26.3,86.1 23.6,89.2 20.5,91.7 14.6,81.2 16.6,80.4 18.5,79.1 20.4,77.3 22.2,75 23.9,72.2 25.4,68.8 26.8,64.9 28.1,60.4 29.3,55.5 30.1,50"></polygon><polygon points=" 20.5,91.7  16,92.2 12.3,89.4 11.8,84.9 14.6,81.2"></polygon><polygon points=" 31,59  176,59 176,63 31,63"></polygon><polygon points=" 181.6,62.8  180.7,64.2 179.6,65.8 178.4,67.4 177,69.3 175.5,71.3 173.9,73.5 172,75.9 170,78.5 167.8,81.2 165.7,84.4 164.2,83.5 165.6,80.1 166.5,76.7 167.4,73.6 168.2,70.7 168.9,68.1 169.4,65.7 169.8,63.7 170.1,61.8 170.3,60.3 170.3,59.1"></polygon><polygon points=" 170,59  176,54 187,63 182,66 170,71"></polygon><polygon points=" 31,89  170,89 170,93 31,93"></polygon><polygon points=" 170,89  150,91 160,80"></polygon><polygon points=" 106,71  106,184 94,190 94,69"></polygon><polygon points=" 106,71  109,73 104,76"></polygon><polygon points=" 59,105  59,155 47,161 47,99"></polygon><polygon points=" 53,105  147,105 147,109 53,109"></polygon><polygon points=" 63.3,113.7  66.4,115.1 69.6,116.2 72.5,117.4 75.3,118.7 77.9,120.1 80.3,121.5 82.6,123 84.7,124.7 86.6,126.4 88.4,128.2 78.3,134.6 77.7,133.1 76.9,131.4 75.9,129.6 74.6,127.8 73.1,125.8 71.4,123.8 69.5,121.7 67.4,119.5 65.1,117.2 62.4,115.2"></polygon><polygon points=" 88.4,128.2  89.1,132.7 86.6,136.5 82.1,137.2 78.3,134.6"></polygon><polygon points=" 137.1,117.4  134.8,119.7 132.3,122 129.8,124.2 127.2,126.3 124.5,128.4 121.7,130.4 118.8,132.3 115.8,134.1 112.6,135.8 109.5,137.7 108.4,136.2 110.8,133.7 113,130.9 115.1,128.2 117.1,125.5 119.1,122.9 121,120.3 122.8,117.7 124.5,115.2 126.1,112.6 127.6,110.1"></polygon><polygon points=" 127,110.9  137.1,117.4 128,109.5"></polygon><polygon points=" 137.1,117.4  138.3,120.8 132.5,120.1"></polygon><polygon points=" 153,107  153,149 141,155 141,107"></polygon><polygon points=" 141,105  147,100 158,109 153,113 141,107"></polygon><polygon points=" 53,139  147,139 147,143 53,143"></polygon><polygon points=" 95.4,145.1  90.8,151 85.7,156.5 80.1,161.6 74.2,166.3 67.8,170.6 60.9,174.6 53.7,178.1 46,181.2 37.8,183.8 29.2,185.8 28.7,184.1 36.4,180.2 43.7,176.3 50.6,172.3 57,168.1 62.9,163.7 68.3,159.1 73.3,154.3 77.8,149.2 81.8,143.9 85.4,138.5"></polygon><polygon points=" 84.8,139.3  95.4,145.1 85.9,137.7"></polygon><polygon points=" 95.4,145.1  96.8,148.4 91,148.2"></polygon><polygon points=" 109.3,141.3  114.2,145.9 119.1,150.3 124.1,154.4 129.2,158.2 134.5,161.6 140.1,164.7 145.9,167.4 151.9,169.8 158.2,171.9 164.8,173.6 161.1,186.3 154,183.7 147.3,180.7 140.8,177.2 134.8,173.4 129.2,169.2 123.9,164.6 119.1,159.7 114.7,154.3 110.9,148.5 107.8,142.3"></polygon><polygon points=" 161.1,186.3  164.8,173.6 172.8,175.9"></polygon></g></svg>