<svg version="1.1" viewBox="0 0 200 200" xmlns="http://www.w3.org/2000/svg" xmlns:cc="http://creativecommons.org/ns#" xmlns:dc="http://purl.org/dc/elements/1.1/" xmlns:rdf="http://www.w3.org/1999/02/22-rdf-syntax-ns#"><g><polygon points=" 36,23  36,182 24,188 24,17"></polygon><polygon points=" 30,23  168,23 168,27 30,27"></polygon><polygon points=" 168,23  144,25 156,13"></polygon><polygon points=" 30,175  176,175 176,179 30,179"></polygon><polygon points=" 176,175  152,177 164,165"></polygon><polygon points=" 52.3,54  54.9,56.1 57.5,58.1 60,60.4 62.3,62.9 64.4,65.6 66.3,68.5 68.1,71.6 69.6,74.9 71,78.3 72.2,81.8 60.5,84.2 60.2,81 59.7,78 59.1,75 58.4,72 57.6,69.2 56.6,66.3 55.4,63.5 54.2,60.7 52.8,57.9 51,55.3"></polygon><polygon points=" 72.2,81.8  71.3,86.3 67.5,88.9 63.1,88 60.5,84.2"></polygon><polygon points=" 46,124.6  49,122.7 52,120.6 55.1,118.4 58.2,116.1 61.3,113.7 64.6,111.1 67.9,108.6 71.2,105.9 74.8,103.2 78.3,100.4 79.6,101.5 77.1,105.4 74.7,109.2 72.2,112.7 69.6,116.2 67,119.4 64.3,122.6 61.6,125.6 58.9,128.5 56.2,131.3 53.5,134"></polygon><polygon points=" 53.5,134  46,124.6 44.4,125.9"></polygon><polygon points=" 53.5,134  56.9,135.1 56.3,127.9"></polygon><polygon points=" 85,33  85,162 73,168 73,31"></polygon><polygon points=" 85,33  88,35 83,38"></polygon><polygon points=" 87,82  164,82 164,86 87,86"></polygon><polygon points=" 164,82  140,84 152,72"></polygon><polygon points=" 131,36  131,149 119,155 119,34"></polygon><polygon points=" 131,36  134,38 129,41"></polygon><polygon points=" 92,150  159,150 159,154 92,154"></polygon><polygon points=" 159,150  135,152 147,140"></polygon></g></svg>