<svg version="1.1" viewBox="0 0 200 200" xmlns="http://www.w3.org/2000/svg" xmlns:cc="http://creativecommons.org/ns#" xmlns:dc="http://purl.org/dc/elements/1.1/" xmlns:rdf="http://www.w3.org/1999/02/22-rdf-syntax-ns#"><g><polygon points=" 21.3,15.6  25.5,17.3 29.6,18.9 33.5,20.7 37.1,22.8 40.5,25 43.6,27.3 46.5,29.9 49.2,32.6 51.7,35.5 53.8,38.5 43.2,44.1 42.1,41.5 40.8,38.8 39.2,36.2 37.3,33.5 35.2,30.8 32.8,28.2 30.1,25.4 27.2,22.7 24,19.9 20.4,17.2"></polygon><polygon points=" 53.8,38.5  54.2,43 51.4,46.6 46.8,47 43.2,44.1"></polygon><polygon points=" 14,84  46,84 46,88 14,88"></polygon><polygon points=" 52,86  52,156 40,162 40,86"></polygon><polygon points=" 40,84  46,79 57,88 52,92 40,86"></polygon><polygon points=" 13.8,171.8  17.1,169.5 20.4,167.4 23.9,165.5 27.4,163.7 30.9,162.1 34.6,160.7 38.3,159.5 42,158.5 45.9,157.8 49.7,157.1 50.2,158.8 46.9,160.6 43.8,162.7 40.7,164.7 37.7,166.8 34.8,169 32,171.2 29.3,173.5 26.7,175.8 24.1,178.3 21.6,180.8"></polygon><polygon points=" 21.6,180.8  13.8,171.8 12.3,173.1"></polygon><polygon points=" 21.6,180.8  25.1,181.8 24.2,174.6"></polygon><polygon points=" 26.2,172.6  37.9,162.7 45.7,157.4 52.5,156 58.5,158.1 64.5,161.5 73.4,165.5 87.6,169.5 109.5,172.6 141.1,173.9 184.6,172.4 185.3,185.5 141,186.4 108.3,184.4 85.1,180.3 69.5,175 59.6,169.5 53.9,165.1 51,163.1 47.8,162.9 40.2,166.2 27.3,174.1"></polygon><polygon points=" 185.3,185.5  184.6,172.4 195.7,171.7"></polygon><polygon points=" 101.1,23.4  99.3,24.9 97.5,26.5 95.5,28 93.4,29.6 91.2,31.2 88.9,32.8 86.5,34.5 83.9,36.1 81.1,37.7 78.6,39.6 77.3,38.3 79.5,35.9 81.2,33.2 82.8,30.7 84.4,28.4 85.9,26.1 87.2,23.9 88.5,21.8 89.6,19.8 90.7,17.9 91.6,16.1"></polygon><polygon points=" 91,16.8  101.1,23.4 92,15.5"></polygon><polygon points=" 101.1,23.4  102.2,26.8 96.4,26.1"></polygon><polygon points=" 79.3,38.8  81.7,40.1 84.2,41.1 86.7,42.3 89,43.7 91.2,45.2 93.4,46.8 95.4,48.5 97.3,50.4 99.1,52.4 100.8,54.5 90.2,60.2 89.6,58.2 88.8,56.2 88,54.2 87,52.2 85.9,50.2 84.6,48.2 83.3,46.2 81.8,44.1 80.3,42 78.3,40.3"></polygon><polygon points=" 100.8,54.5  101.2,59 98.4,62.6 93.8,63 90.2,60.2"></polygon><polygon points=" 138.1,23.4  136.3,25 134.4,26.5 132.4,28.1 130.2,29.7 127.9,31.3 125.5,32.9 122.9,34.5 120.2,36.2 117.3,37.7 114.5,39.6 113.4,38.3 115.7,35.8 117.6,33.2 119.4,30.7 121.1,28.3 122.7,26 124.1,23.8 125.5,21.7 126.6,19.7 127.7,17.8 128.6,16.1"></polygon><polygon points=" 128,16.8  138.1,23.4 129,15.5"></polygon><polygon points=" 138.1,23.4  139.2,26.8 133.4,26.1"></polygon><polygon points=" 115.3,38.7  117.8,40 120.6,41 123.1,42.2 125.6,43.6 127.9,45.1 130.1,46.7 132.2,48.4 134.2,50.3 136.1,52.3 137.8,54.5 127.2,60.2 126.6,58.2 125.8,56.2 124.9,54.3 123.9,52.3 122.7,50.3 121.3,48.3 119.9,46.2 118.2,44.1 116.5,42 114.3,40.2"></polygon><polygon points=" 137.8,54.5  138.2,59 135.4,62.6 130.8,63 127.2,60.2"></polygon><polygon points=" 174.1,23.4  172.3,25 170.4,26.5 168.4,28.1 166.2,29.7 163.9,31.3 161.5,32.9 158.9,34.5 156.2,36.2 153.3,37.7 150.5,39.6 149.4,38.3 151.7,35.8 153.6,33.2 155.4,30.7 157.1,28.3 158.7,26 160.1,23.8 161.5,21.7 162.6,19.7 163.7,17.8 164.6,16.1"></polygon><polygon points=" 164,16.8  174.1,23.4 165,15.5"></polygon><polygon points=" 174.1,23.4  175.2,26.8 169.4,26.1"></polygon><polygon points=" 151.3,38.7  153.8,40 156.6,41 159.1,42.2 161.6,43.6 163.9,45.1 166.1,46.7 168.2,48.4 170.2,50.3 172.1,52.3 173.8,54.5 163.2,60.2 162.6,58.2 161.8,56.2 160.9,54.3 159.9,52.3 158.7,50.3 157.3,48.3 155.9,46.2 154.2,44.1 152.5,42 150.3,40.2"></polygon><polygon points=" 173.8,54.5  174.2,59 171.4,62.6 166.8,63 163.2,60.2"></polygon><polygon points=" 90,71  90,114 78,114 78,65"></polygon><polygon points=" 78,114  80.4,117.6 84,120 87.6,117.6 90,114"></polygon><polygon points=" 90,114  89.4,120.9 88.4,127.5 86.9,133.5 84.8,139.2 82.3,144.3 79.2,148.9 75.7,152.9 71.7,156.2 67.2,158.9 62.4,160.7 61.5,159.2 65,155.8 68,152.3 70.6,148.7 72.8,144.8 74.6,140.6 76,136.1 77.1,131.2 77.8,125.9 78.1,120.1 78,114"></polygon><polygon points=" 84,71  165,71 165,75 84,75"></polygon><polygon points=" 171,73  171.1,88.5 171.5,102.4 172.2,114.7 173.3,125.2 174.8,133.9 176.7,140.9 178.8,145.9 181,148.9 183,150.4 185.3,151 184.6,162.9 178,161.3 172.4,157.3 168.3,151.7 165.3,144.7 163.1,136.5 161.4,126.8 160.3,115.6 159.5,103 159.1,88.7 159,73"></polygon><polygon points=" 159,71  165,66 176,75 171,78 159,83"></polygon><polygon points=" 185.3,151  189.4,153 190.9,157.3 188.9,161.4 184.6,162.9"></polygon><polygon points=" 185,152  187,126 185,126 179,152"></polygon><polygon points=" 84,95  165,95 165,99 84,99"></polygon><polygon points=" 84,119  165,119 165,123 84,123"></polygon><polygon points=" 130,74  130,152 118,158 118,72"></polygon><polygon points=" 130,74  133,76 128,79"></polygon></g></svg>