<svg version="1.1" viewBox="0 0 200 200" xmlns="http://www.w3.org/2000/svg" xmlns:cc="http://creativecommons.org/ns#" xmlns:dc="http://purl.org/dc/elements/1.1/" xmlns:rdf="http://www.w3.org/1999/02/22-rdf-syntax-ns#"><g><polygon points=" 21.3,15.6  25.5,17.3 29.6,18.9 33.5,20.7 37.1,22.8 40.5,25 43.6,27.3 46.5,29.9 49.2,32.6 51.7,35.5 53.8,38.5 43.2,44.1 42.1,41.5 40.8,38.8 39.2,36.2 37.3,33.5 35.2,30.8 32.8,28.2 30.1,25.4 27.2,22.7 24,19.9 20.4,17.2"></polygon><polygon points=" 53.8,38.5  54.2,43 51.4,46.6 46.8,47 43.2,44.1"></polygon><polygon points=" 14,84  47,84 47,88 14,88"></polygon><polygon points=" 53,86  53,156 41,162 41,86"></polygon><polygon points=" 41,84  47,79 58,88 53,92 41,86"></polygon><polygon points=" 13.8,171.8  17.1,169.5 20.4,167.4 23.9,165.5 27.4,163.7 30.9,162.1 34.6,160.7 38.3,159.5 42,158.5 45.9,157.8 49.7,157.1 50.2,158.8 46.9,160.6 43.8,162.7 40.7,164.7 37.7,166.8 34.8,169 32,171.2 29.3,173.5 26.7,175.8 24.1,178.3 21.6,180.8"></polygon><polygon points=" 21.6,180.8  13.8,171.8 12.3,173.1"></polygon><polygon points=" 21.6,180.8  25.1,181.8 24.2,174.6"></polygon><polygon points=" 26.2,172.6  38.2,162.7 46.1,157.4 52.9,156 58.9,158.1 64.9,161.5 73.7,165.5 87.8,169.5 109.6,172.6 141.2,173.9 184.6,172.4 185.3,185.5 141,186.4 108.4,184.4 85.3,180.3 69.8,175 60,169.5 54.3,165.1 51.5,163.1 48.2,162.9 40.5,166.2 27.3,174.1"></polygon><polygon points=" 185.3,185.5  184.6,172.4 195.7,171.7"></polygon><polygon points=" 105.2,15.6  108.5,16.8 111.9,17.8 114.9,19.1 117.8,20.5 120.5,22.1 123,23.9 125.2,25.9 127.3,28.1 129.1,30.5 130.6,33.1 119.3,37.1 119,35.3 118.5,33.5 117.7,31.6 116.7,29.6 115.4,27.6 113.8,25.5 111.9,23.4 109.8,21.3 107.4,19 104.5,17.2"></polygon><polygon points=" 130.6,33.1  130.3,37.7 127,40.8 122.4,40.5 119.3,37.1"></polygon><polygon points=" 57,47  185,47 185,51 57,51"></polygon><polygon points=" 185,47  161,49 173,37"></polygon><polygon points=" 126.4,54  122.6,59.3 118,65.2 112.9,71.5 107.5,77.9 101.8,84 96.2,89.5 90.7,94.1 85.6,97.6 80.8,99.3 76.8,98.8 77.1,97.1 79.4,95.8 82.5,93.2 86.3,89.3 90.7,84.2 95.4,78.4 100.2,72 104.9,65.4 109.3,58.9 113.2,52.9 116.4,47.5"></polygon><polygon points=" 115.8,48.4  126.4,54 116.9,46.7"></polygon><polygon points=" 126.4,54  127.9,57.4 122,57.2"></polygon><polygon points=" 77.5,95.9  83.4,95.8 89.1,95.8 94.9,95.7 100.7,95.7 106.4,95.7 112.1,95.8 117.8,95.9 123.5,96.1 129.2,96.5 134.9,97.1 135,98.8 129.5,100.2 123.9,101.4 118.3,102.4 112.7,103.3 107,104.2 101.3,105 95.6,105.7 89.9,106.5 84.1,107.2 78.3,107.9"></polygon><polygon points=" 78.3,107.9  77.5,95.9 75.6,96"></polygon><polygon points=" 78.3,107.9  80.5,110.7 84.1,104.5"></polygon><polygon points=" 161.3,73.2  153.6,82.9 144.6,93.4 134.7,104.1 124.2,114.8 113.6,125 103.2,134.1 93.5,141.8 84.8,147.5 77.4,150.8 71.8,150.8 72.1,149.1 75.9,147.3 81.8,143 89.4,136.7 98.1,128.5 107.7,118.9 117.5,108.4 127.2,97.4 136.4,86.4 144.7,75.9 151.5,66.3"></polygon><polygon points=" 150.9,67.1  161.3,73.2 152,65.6"></polygon><polygon points=" 161.3,73.2  162.6,76.6 156.7,76.2"></polygon><polygon points=" 73.4,146.9  82,146.4 90.7,145.9 99.3,145.4 108,144.9 116.8,144.5 125.5,144 134.3,143.6 143.1,143.2 151.9,143.1 160.8,143.1 161.1,144.8 152.4,146.8 143.7,148.6 135,150.1 126.3,151.5 117.6,152.9 109,154.2 100.3,155.4 91.7,156.6 83.1,157.7 74.5,158.8"></polygon><polygon points=" 74.5,158.8  73.4,146.9 71.4,147.1"></polygon><polygon points=" 74.5,158.8  76.8,161.6 80.2,155.3"></polygon><polygon points=" 142.3,117.1  147,121.5 151.4,125.7 155.3,129.7 158.8,133.5 162,137.1 164.8,140.5 167.2,143.6 169.3,146.6 171.1,149.4 172.6,152.1 161.3,156.1 160.8,154.1 160,151.6 158.7,148.7 157.2,145.4 155.2,141.8 153,137.8 150.4,133.5 147.5,128.8 144.4,123.7 140.9,118.3"></polygon><polygon points=" 172.6,152.1  172.3,156.7 169,159.8 164.4,159.5 161.3,156.1"></polygon></g></svg>