<svg version="1.1" viewBox="0 0 200 200" xmlns="http://www.w3.org/2000/svg" xmlns:cc="http://creativecommons.org/ns#" xmlns:dc="http://purl.org/dc/elements/1.1/" xmlns:rdf="http://www.w3.org/1999/02/22-rdf-syntax-ns#"><g><polygon points=" 21.3,15.6  25.5,17.3 29.6,18.9 33.5,20.7 37.1,22.8 40.5,25 43.6,27.3 46.5,29.9 49.2,32.6 51.7,35.5 53.8,38.5 43.2,44.1 42.1,41.5 40.8,38.8 39.2,36.2 37.3,33.5 35.2,30.8 32.8,28.2 30.1,25.4 27.2,22.7 24,19.9 20.4,17.2"></polygon><polygon points=" 53.8,38.5  54.2,43 51.4,46.6 46.8,47 43.2,44.1"></polygon><polygon points=" 14,84  47,84 47,88 14,88"></polygon><polygon points=" 53,86  53,156 41,162 41,86"></polygon><polygon points=" 41,84  47,79 58,88 53,92 41,86"></polygon><polygon points=" 13.8,171.8  17.1,169.5 20.4,167.4 23.9,165.5 27.4,163.7 30.9,162.1 34.6,160.7 38.3,159.5 42,158.5 45.9,157.8 49.7,157.1 50.2,158.8 46.9,160.6 43.8,162.7 40.7,164.7 37.7,166.8 34.8,169 32,171.2 29.3,173.5 26.7,175.8 24.1,178.3 21.6,180.8"></polygon><polygon points=" 21.6,180.8  13.8,171.8 12.3,173.1"></polygon><polygon points=" 21.6,180.8  25.1,181.8 24.2,174.6"></polygon><polygon points=" 26.2,172.6  38.2,162.7 46.1,157.4 52.9,156 58.9,158.1 64.9,161.5 73.7,165.5 87.8,169.5 109.6,172.6 141.2,173.9 184.6,172.4 185.3,185.5 141,186.4 108.4,184.4 85.3,180.3 69.8,175 60,169.5 54.3,165.1 51.5,163.1 48.2,162.9 40.5,166.2 27.3,174.1"></polygon><polygon points=" 185.3,185.5  184.6,172.4 195.7,171.7"></polygon><polygon points=" 76,23  76,59 64,65 64,17"></polygon><polygon points=" 70,23  173,23 173,27 70,27"></polygon><polygon points=" 179,25  179,59 167,65 167,25"></polygon><polygon points=" 167,23  173,18 184,27 179,31 167,25"></polygon><polygon points=" 111,26  111,54 99,60 99,24"></polygon><polygon points=" 111,26  114,28 109,31"></polygon><polygon points=" 145,26  145,54 133,60 133,24"></polygon><polygon points=" 145,26  148,28 143,31"></polygon><polygon points=" 70,55  173,55 173,59 70,59"></polygon><polygon points=" 59,73  185,73 185,77 59,77"></polygon><polygon points=" 185,73  161,75 173,63"></polygon><polygon points=" 134.6,78.8  129.2,86.9 123.3,94.5 116.8,101.8 109.9,108.8 102.4,115.3 94.4,121.5 86,127.3 77,132.6 67.4,137.4 57.4,141.8 56.5,140.1 65.6,134.2 74.1,128.1 82.1,121.9 89.7,115.6 96.7,109 103.3,102.2 109.3,95.2 114.8,88 119.8,80.5 124.3,72.8"></polygon><polygon points=" 123.8,73.6  134.6,78.8 124.8,71.9"></polygon><polygon points=" 134.6,78.8  136.2,82.1 130.4,82.1"></polygon><polygon points=" 128,97  128,168 116,174 116,95"></polygon><polygon points=" 128,97  131,99 126,102"></polygon><polygon points=" 132.2,105.5  138.4,107 144.3,108.9 150,111.1 155.5,113.7 160.7,116.5 165.8,119.5 170.7,122.7 175.4,126.1 179.9,129.8 184.2,133.6 175.5,141.9 172.1,138 168.4,134.2 164.5,130.6 160.4,127 156.1,123.5 151.6,120.2 146.8,116.9 141.9,113.7 136.8,110.5 131.5,107.2"></polygon><polygon points=" 184.2,133.6  185.8,137.9 184,142.1 179.7,143.7 175.5,141.9"></polygon></g></svg>